<?xml version="1.0" encoding="UTF-8"?>
<!DOCTYPE svg PUBLIC "-//W3C//DTD SVG 1.1//EN" "http://www.w3.org/Graphics/SVG/1.1/DTD/svg11.dtd">
<!-- Creator: CorelDRAW 2018 (64 Bit) -->
<svg xmlns="http://www.w3.org/2000/svg" xml:space="preserve" width="4.5mm" height="4.5mm" version="1.1" style="shape-rendering:geometricPrecision; text-rendering:geometricPrecision; image-rendering:optimizeQuality; fill-rule:evenodd; clip-rule:evenodd"
viewBox="0 0 450 450"
 xmlns:xlink="http://www.w3.org/1999/xlink">
 <defs>
  <style type="text/css">
   <![CDATA[
    .str1 {stroke:black;stroke-width:9;stroke-miterlimit:22.9256}
    .str0 {stroke:#666666;stroke-width:18;stroke-linecap:square;stroke-linejoin:bevel;stroke-miterlimit:14.1589}
    .fil3 {fill:black}
    .fil5 {fill:#006DF0}
    .fil2 {fill:#40596B}
    .fil4 {fill:gray}
    .fil0 {fill:#ACB3BA}
    .fil1 {fill:#CDD6E0}
   ]]>
  </style>
 </defs>
 <g id="Ebene_x0020_1">
  <metadata id="CorelCorpID_0Corel-Layer"/>
  <polygon class="fil0" points="316.99,126.45 178,45.3 178,367.32 316.99,287.03 "/>
  <polygon class="fil1" points="178,45.3 39,126.45 39,287.03 178,367.32 178,367.32 "/>
  <polygon class="fil2" points="178,45.3 39,126.45 39,126.45 178,206.74 316.99,126.45 316.99,126.45 "/>
  <path class="fil3" d="M218.92 402.27c-0.01,-2.07 -0.02,-0.58 0,0l0 0z"/>
  <path class="fil3" d="M410.55 403.89c0.03,-0.57 0.01,-3.94 0,0l0 0z"/>
  <g id="_1889585092544">
  </g>
  <g id="_1889585092032">
  </g>
  <g id="_1889585089120">
  </g>
  <g id="_1889585090432">
  </g>
  <g id="_1889585090240">
  </g>
  <g id="_1889585089344">
  </g>
  <g id="_1889585087808">
  </g>
  <g id="_1889585086912">
  </g>
  <g id="_1889585088640">
  </g>
  <g id="_1889585086944">
  </g>
  <g id="_1889585085120">
  </g>
  <g id="_1889585084800">
  </g>
  <g id="_1889585085888">
  </g>
  <g id="_1889585083520">
  </g>
  <g id="_1889585083456">
  </g>
  <path class="fil4 str0" d="M270.73 289.83c-1.66,-1.64 -4.35,-1.64 -6.01,0 -1.66,1.64 -1.66,4.3 0,5.95l42.44 41.97c0.79,0.79 1.6,1.59 3.08,1.78 1.48,-0.19 1.94,-0.73 3.47,-2.32l42.07 -41.6c1.66,-1.64 1.66,-4.3 0,-5.95 -1.66,-1.64 -4.35,-1.64 -6.01,0l-35.18 34.79 0 -149.48c0,-2.33 -1.9,-4.21 -4.25,-4.21 -2.35,0 -4.25,1.88 -4.25,4.21l0 149.83 -35.36 -34.97z"/>
  <path class="fil5 str1" d="M340.11 227.49c-2.35,0 -4.25,1.58 -4.25,3.55 0,1.96 1.9,3.55 4.25,3.55l55.29 0 0 138.27 -170.12 0 0 -138.27 55.29 0c2.35,0 4.25,-1.58 4.25,-3.55 0,-1.96 -1.9,-3.55 -4.25,-3.55l-63.8 -0 0 152.45 187.14 0 0 -152.45 -63.8 0z"/>
  <g id="_1889585075808">
  </g>
  <g id="_1889585073408">
  </g>
  <g id="_1889585070624">
  </g>
  <g id="_1889116690960">
  </g>
  <g id="_1889116691600">
  </g>
  <g id="_1889116691152">
  </g>
  <g id="_1889116690160">
  </g>
  <g id="_1889116684240">
  </g>
  <g id="_1889116683568">
  </g>
  <g id="_1889116682800">
  </g>
  <g id="_1889116682672">
  </g>
  <g id="_1889116681616">
  </g>
  <g id="_1889116681008">
  </g>
  <g id="_1889116694960">
  </g>
  <g id="_1889116694704">
  </g>
 </g>
</svg>
