<?xml version="1.0" encoding="UTF-8"?>
<!DOCTYPE svg PUBLIC "-//W3C//DTD SVG 1.1//EN" "http://www.w3.org/Graphics/SVG/1.1/DTD/svg11.dtd">
<!-- Creator: CorelDRAW 2018 (64 Bit) -->
<svg xmlns="http://www.w3.org/2000/svg" xml:space="preserve" width="4.5mm" height="4.5mm" version="1.1" style="shape-rendering:geometricPrecision; text-rendering:geometricPrecision; image-rendering:optimizeQuality; fill-rule:evenodd; clip-rule:evenodd"
viewBox="0 0 450 450"
 xmlns:xlink="http://www.w3.org/1999/xlink">
 <defs>
  <style type="text/css">
   <![CDATA[
    .fil3 {fill:black}
    .fil2 {fill:#40596B}
    .fil0 {fill:#ACB3BA}
    .fil1 {fill:#CDD6E0}
   ]]>
  </style>
 </defs>
 <g id="Ebene_x0020_1">
  <metadata id="CorelCorpID_0Corel-Layer"/>
  <polygon class="fil0" points="316.99,126.45 178,45.3 178,367.32 316.99,287.03 "/>
  <polygon class="fil1" points="178,45.3 39,126.45 39,287.03 178,367.32 178,367.32 "/>
  <polygon class="fil2" points="178,45.3 39,126.45 39,126.45 178,206.74 316.99,126.45 316.99,126.45 "/>
  <path class="fil3" d="M318.55 293.42c28.02,0 50.73,-27.59 50.73,-61.62 0,-34.03 -7.46,-61.62 -50.73,-61.62 -43.27,0 -50.73,27.59 -50.73,61.62 0,34.03 22.71,61.62 50.73,61.62z"/>
  <path class="fil3" d="M222.73 387.5c-0.01,-2.07 -0.02,-0.58 0,0l0 0z"/>
  <path class="fil3" d="M414.36 389.12c0.03,-0.57 0.01,-3.94 0,0l0 0z"/>
  <path class="fil3" d="M414.26 385.02c-0.94,-59.28 -8.68,-76.17 -67.93,-86.87 0,0 -8.34,10.63 -27.78,10.63 -19.44,0 -27.78,-10.63 -27.78,-10.63 -58.6,10.58 -66.81,27.22 -67.89,84.94 -0.09,4.71 -0.13,4.96 -0.15,4.41 0,1.03 0.01,2.92 0.01,6.23 0,0 14.1,28.43 95.81,28.43 81.7,0 95.81,-28.43 95.81,-28.43 0,-2.12 0,-3.6 0,-4.61 -0.02,0.34 -0.05,-0.32 -0.11,-4.11z"/>
  <g id="_1889117225104">
  </g>
  <g id="_1889117187472">
  </g>
  <g id="_1889301589520">
  </g>
  <g id="_1889119064416">
  </g>
  <g id="_1889303953248">
  </g>
  <g id="_1889303952096">
  </g>
  <g id="_1853735421792">
  </g>
  <g id="_1889120337504">
  </g>
  <g id="_1889120363840">
  </g>
  <g id="_1889116394528">
  </g>
  <g id="_1889116390880">
  </g>
  <g id="_1854021978128">
  </g>
  <g id="_1854021993456">
  </g>
  <g id="_1854021987600">
  </g>
  <g id="_1889114364720">
  </g>
 </g>
</svg>
