<?xml version="1.0" encoding="UTF-8"?>
<!DOCTYPE svg PUBLIC "-//W3C//DTD SVG 1.1//EN" "http://www.w3.org/Graphics/SVG/1.1/DTD/svg11.dtd">
<!-- Creator: CorelDRAW 2018 (64 Bit) -->
<svg xmlns="http://www.w3.org/2000/svg" xml:space="preserve" width="4.5mm" height="4.5mm" version="1.1" style="shape-rendering:geometricPrecision; text-rendering:geometricPrecision; image-rendering:optimizeQuality; fill-rule:evenodd; clip-rule:evenodd"
viewBox="0 0 450 450"
 xmlns:xlink="http://www.w3.org/1999/xlink">
 <defs>
  <style type="text/css">
   <![CDATA[
    .str0 {stroke:black;stroke-width:0.9;stroke-miterlimit:22.9256}
    .str1 {stroke:black;stroke-width:0.34;stroke-miterlimit:22.9256}
    .fil5 {fill:none;fill-rule:nonzero}
    .fil1 {fill:black}
    .fil2 {fill:black}
    .fil3 {fill:#285285}
    .fil0 {fill:#A7A9AC}
    .fil4 {fill:black;fill-rule:nonzero}
   ]]>
  </style>
 </defs>
 <g id="Ebene_x0020_1">
  <metadata id="CorelCorpID_0Corel-Layer"/>
  <path id="XMLID_1326_" class="fil0" d="M286.98 371.07c0,-31.47 -25.51,-56.98 -56.98,-56.98 -31.47,0 -56.98,25.51 -56.98,56.98 0,31.47 25.51,56.98 56.98,56.98 31.47,0 56.98,-25.51 56.98,-56.98z"/>
  <path class="fil1" d="M186.74 371.07c0,-23.82 19.45,-43.26 43.26,-43.26 23.82,0 43.26,19.45 43.26,43.26 0,23.82 -19.45,43.26 -43.26,43.26 -23.97,0.15 -43.26,-19.3 -43.26,-43.26z"/>
  <path class="fil1" d="M151.61 371.21c0,-7.06 -5.79,-12.84 -12.84,-12.84 -7.06,0 -12.84,5.79 -12.84,12.84 0,7.06 5.79,12.84 12.84,12.84 7.06,0 12.84,-5.65 12.84,-12.84z"/>
  <path class="fil1" d="M61.41 371.21c0,-7.06 -5.65,-12.84 -12.84,-12.84 -7.06,0 -12.84,5.79 -12.84,12.84 0,7.06 5.79,12.84 12.84,12.84 7.06,0 12.84,-5.65 12.84,-12.84z"/>
  <path class="fil1" d="M80.89 371.21c0,7.06 5.79,12.84 12.84,12.84 7.06,0 12.84,-5.65 12.84,-12.84 0,-7.06 -5.65,-12.84 -12.84,-12.84 -7.06,0.14 -12.84,5.79 -12.84,12.84z"/>
  <path class="fil1" d="M423.86 371.21c0,-7.06 -5.65,-12.84 -12.84,-12.84 -7.06,0 -12.84,5.79 -12.84,12.84 0,7.06 5.79,12.84 12.84,12.84 7.06,0 12.84,-5.65 12.84,-12.84z"/>
  <path class="fil1" d="M365.99 384.06c7.06,0 12.84,-5.65 12.84,-12.84 0,-7.06 -5.65,-12.84 -12.84,-12.84 -7.06,0 -12.85,5.79 -12.85,12.84 0,7.2 5.79,12.84 12.85,12.84z"/>
  <path class="fil1" d="M333.66 371.21c0,-7.06 -5.65,-12.84 -12.84,-12.84 -7.06,0 -12.7,5.79 -12.7,12.84 0,7.06 5.65,12.84 12.7,12.84 7.06,0 12.84,-5.65 12.84,-12.84z"/>
  <rect class="fil2 str0" x="219.94" y="283.74" width="19.53" height="58.02"/>
  <path class="fil3" d="M155.54 174.35c-11.27,-2.11 -21.2,-4.74 -29.74,-7.74 -9.62,-3.24 -17.86,-7.06 -24.22,-11.43l0 34.56 0 2.43 0 2.43 0 6.26c8.07,8.42 27.23,16.47 53.96,21.7l0 -48.22z"/>
  <path class="fil3" d="M344.59 133.96l0 -3.08 0 -2.43 0 -2.43 0 -34.56c-23.66,16.25 -73.66,24.84 -121.51,24.84 -47.84,0 -97.85,-8.59 -121.51,-24.84l0 34.56 0 2.43 0 2.43 0 6.26c8.07,8.43 27.23,16.47 53.96,21.71l0 -12.51 0.45 0 0 -12.38 188.6 0z"/>
  <path class="fil3" d="M344.59 74.05l0 -8.78 0 -2.43c0,-0.82 -0.27,-1.55 -0.66,-2.23 -5.46,-20.9 -47.39,-41.52 -120.85,-41.52 -73.28,0 -115.17,20.51 -120.8,41.36 -0.41,0.71 -0.71,1.5 -0.71,2.38l0 2.43 0 8.78c13.78,14.39 59.86,27.67 121.51,27.67 61.65,0 107.72,-13.28 121.5,-27.67z"/>
  <path class="fil3" d="M155.54 237.83c-24.43,-4.61 -42.75,-11.56 -53.97,-19.46l0 39.86c0,0.79 0.21,1.53 0.57,2.19 5.74,23.79 57.09,41.55 120.94,41.55 23.15,0 22.84,-0.46 42.32,-2.78 13.45,-2.61 46.21,-10.15 66.2,-22.35l-176.06 0 0 -39.01z"/>
  <g id="_1889296483952">
  </g>
  <g id="_1889296521712">
  </g>
  <g id="_1889296518736">
  </g>
  <g id="_1889296519568">
  </g>
  <g id="_1889296517136">
  </g>
  <g id="_1889296517264">
  </g>
  <g id="_1889296517680">
  </g>
  <g id="_1889296516944">
  </g>
  <g id="_1889296514896">
  </g>
  <g id="_1889296514800">
  </g>
  <g id="_1889296514160">
  </g>
  <g id="_1889296515472">
  </g>
  <g id="_1889296515344">
  </g>
  <g id="_1889296513744">
  </g>
  <g id="_1889296512048">
  </g>
  <polygon class="fil4" points="174.86,249.06 174.86,158.13 240.52,158.13 240.52,168.79 186.92,168.79 186.92,196.73 237.09,196.73 237.09,207.4 186.92,207.4 186.92,238.39 242.68,238.39 242.68,249.06 "/>
  <polygon id="1" class="fil4" points="258.8,249.06 258.8,158.13 270.87,158.13 270.87,203.21 316.04,158.13 332.34,158.13 294.2,195 333.99,249.06 318.11,249.06 285.75,203.17 270.87,217.56 270.87,249.06 "/>
  <path id="2" class="fil4" d="M386.57 213.37l0 -10.67 38.48 0 0 33.7c-5.91,4.7 -12,8.25 -18.29,10.63 -6.29,2.37 -12.74,3.56 -19.35,3.56 -8.93,0 -17.04,-1.91 -24.34,-5.74 -7.28,-3.81 -12.81,-9.36 -16.51,-16.57 -3.73,-7.24 -5.59,-15.32 -5.59,-24.24 0,-8.85 1.84,-17.1 5.55,-24.79 3.7,-7.66 9.02,-13.36 15.96,-17.06 6.94,-3.73 14.94,-5.59 24,-5.59 6.56,0 12.51,1.06 17.82,3.2 5.31,2.14 9.48,5.1 12.49,8.89 3.03,3.81 5.31,8.78 6.88,14.9l-10.86 2.96c-1.38,-4.61 -3.07,-8.26 -5.08,-10.92 -2.03,-2.65 -4.91,-4.76 -8.68,-6.35 -3.75,-1.59 -7.92,-2.39 -12.51,-2.39 -5.48,0 -10.22,0.85 -14.24,2.52 -4,1.67 -7.22,3.87 -9.69,6.62 -2.46,2.73 -4.36,5.74 -5.72,9 -2.31,5.65 -3.47,11.75 -3.47,18.33 0,8.13 1.4,14.92 4.17,20.4 2.79,5.46 6.86,9.52 12.17,12.17 5.33,2.65 10.99,3.98 16.98,3.98 5.21,0 10.29,-1.02 15.24,-3.03 4.95,-2.03 8.7,-4.17 11.26,-6.48l0 -17.04 -26.67 0z"/>
  <polygon id="3" class="fil5 str1" points="174.86,249.06 174.86,158.13 240.52,158.13 240.52,168.79 186.92,168.79 186.92,196.73 237.09,196.73 237.09,207.4 186.92,207.4 186.92,238.39 242.68,238.39 242.68,249.06 "/>
  <polygon id="4" class="fil5 str1" points="258.8,249.06 258.8,158.13 270.87,158.13 270.87,203.21 316.04,158.13 332.34,158.13 294.2,195 333.99,249.06 318.11,249.06 285.75,203.17 270.87,217.56 270.87,249.06 "/>
  <path id="5" class="fil5 str1" d="M386.57 213.37l0 -10.67 38.48 0 0 33.7c-5.91,4.7 -12,8.25 -18.29,10.63 -6.29,2.37 -12.74,3.56 -19.35,3.56 -8.93,0 -17.04,-1.91 -24.34,-5.74 -7.28,-3.81 -12.81,-9.36 -16.51,-16.57 -3.73,-7.24 -5.59,-15.32 -5.59,-24.24 0,-8.85 1.84,-17.1 5.55,-24.79 3.7,-7.66 9.02,-13.36 15.96,-17.06 6.94,-3.73 14.94,-5.59 24,-5.59 6.56,0 12.51,1.06 17.82,3.2 5.31,2.14 9.48,5.1 12.49,8.89 3.03,3.81 5.31,8.78 6.88,14.9l-10.86 2.96c-1.38,-4.61 -3.07,-8.26 -5.08,-10.92 -2.03,-2.65 -4.91,-4.76 -8.68,-6.35 -3.75,-1.59 -7.92,-2.39 -12.51,-2.39 -5.48,0 -10.22,0.85 -14.24,2.52 -4,1.67 -7.22,3.87 -9.69,6.62 -2.46,2.73 -4.36,5.74 -5.72,9 -2.31,5.65 -3.47,11.75 -3.47,18.33 0,8.13 1.4,14.92 4.17,20.4 2.79,5.46 6.86,9.52 12.17,12.17 5.33,2.65 10.99,3.98 16.98,3.98 5.21,0 10.29,-1.02 15.24,-3.03 4.95,-2.03 8.7,-4.17 11.26,-6.48l0 -17.04 -26.67 0z"/>
 </g>
</svg>
