<?xml version="1.0" encoding="UTF-8"?>
<!DOCTYPE svg PUBLIC "-//W3C//DTD SVG 1.1//EN" "http://www.w3.org/Graphics/SVG/1.1/DTD/svg11.dtd">
<!-- Creator: CorelDRAW 2018 (64 Bit) -->
<svg xmlns="http://www.w3.org/2000/svg" xml:space="preserve" width="4.5mm" height="4.5mm" version="1.1" style="shape-rendering:geometricPrecision; text-rendering:geometricPrecision; image-rendering:optimizeQuality; fill-rule:evenodd; clip-rule:evenodd"
viewBox="0 0 450 450"
 xmlns:xlink="http://www.w3.org/1999/xlink">
 <defs>
  <style type="text/css">
   <![CDATA[
    .str0 {stroke:black;stroke-width:0.9;stroke-miterlimit:22.9256}
    .fil1 {fill:black}
    .fil2 {fill:black}
    .fil4 {fill:#73BCFF}
    .fil3 {fill:#9ED0FF}
    .fil0 {fill:#A7A9AC}
   ]]>
  </style>
 </defs>
 <g id="Ebene_x0020_1">
  <metadata id="CorelCorpID_0Corel-Layer"/>
  <path id="XMLID_1326_" class="fil0" d="M286.98 371.07c0,-31.47 -25.51,-56.98 -56.98,-56.98 -31.47,0 -56.98,25.51 -56.98,56.98 0,31.47 25.51,56.98 56.98,56.98 31.47,0 56.98,-25.51 56.98,-56.98z"/>
  <path class="fil1" d="M186.74 371.07c0,-23.82 19.45,-43.26 43.26,-43.26 23.82,0 43.26,19.45 43.26,43.26 0,23.82 -19.45,43.26 -43.26,43.26 -23.97,0.15 -43.26,-19.3 -43.26,-43.26z"/>
  <path class="fil1" d="M151.61 371.21c0,-7.06 -5.79,-12.84 -12.84,-12.84 -7.06,0 -12.84,5.79 -12.84,12.84 0,7.06 5.79,12.84 12.84,12.84 7.06,0 12.84,-5.65 12.84,-12.84z"/>
  <path class="fil1" d="M61.41 371.21c0,-7.06 -5.65,-12.84 -12.84,-12.84 -7.06,0 -12.84,5.79 -12.84,12.84 0,7.06 5.79,12.84 12.84,12.84 7.06,0 12.84,-5.65 12.84,-12.84z"/>
  <path class="fil1" d="M80.89 371.21c0,7.06 5.79,12.84 12.84,12.84 7.06,0 12.84,-5.65 12.84,-12.84 0,-7.06 -5.65,-12.84 -12.84,-12.84 -7.06,0.14 -12.84,5.79 -12.84,12.84z"/>
  <path class="fil1" d="M423.86 371.21c0,-7.06 -5.65,-12.84 -12.84,-12.84 -7.06,0 -12.84,5.79 -12.84,12.84 0,7.06 5.79,12.84 12.84,12.84 7.06,0 12.84,-5.65 12.84,-12.84z"/>
  <path class="fil1" d="M365.99 384.06c7.06,0 12.84,-5.65 12.84,-12.84 0,-7.06 -5.65,-12.84 -12.84,-12.84 -7.06,0 -12.85,5.79 -12.85,12.84 0,7.2 5.79,12.84 12.85,12.84z"/>
  <path class="fil1" d="M333.66 371.21c0,-7.06 -5.65,-12.84 -12.84,-12.84 -7.06,0 -12.7,5.79 -12.7,12.84 0,7.06 5.65,12.84 12.7,12.84 7.06,0 12.84,-5.65 12.84,-12.84z"/>
  <rect class="fil2 str0" x="219.94" y="254.22" width="19.53" height="87.55"/>
  <g id="_1889292114336">
   <path class="fil3" d="M429 210.23c0,45.41 -37.73,82.36 -83.14,82.36l-235.31 0c-45.41,0 -83.14,-36.94 -83.14,-82.36 0,-42.35 33.02,-77.42 74.2,-81.89 10.82,-54.59 58.59,-94.59 114.83,-94.59 4,0 7.77,0.24 11.77,0.71 50.83,4.94 92.71,42.83 103.06,93.42l14.59 0c45.41,0 83.14,36.94 83.14,82.36z"/>
   <path class="fil4" d="M429 210.23c0,45.41 -37.73,82.36 -83.14,82.36l-117.65 0 0 -258.13c50.83,4.94 92.71,42.83 103.06,93.42l14.59 0c45.41,0 83.14,36.94 83.14,82.36z"/>
  </g>
 </g>
</svg>
