<?xml version="1.0" encoding="UTF-8"?>
<!DOCTYPE svg PUBLIC "-//W3C//DTD SVG 1.1//EN" "http://www.w3.org/Graphics/SVG/1.1/DTD/svg11.dtd">
<!-- Creator: CorelDRAW 2018 (64 Bit) -->
<svg xmlns="http://www.w3.org/2000/svg" xml:space="preserve" width="4.92mm" height="4.1mm" version="1.1" style="shape-rendering:geometricPrecision; text-rendering:geometricPrecision; image-rendering:optimizeQuality; fill-rule:evenodd; clip-rule:evenodd"
viewBox="0 0 492 410"
 >
 <defs>
  <style type="text/css">
   <![CDATA[
    .str3 {stroke:#006633;stroke-width:0.82;stroke-miterlimit:22.9256}
    .str2 {stroke:#E6E6E6;stroke-width:0.82;stroke-miterlimit:22.9256}
    .str1 {stroke:#00E6FF;stroke-width:57.4;stroke-linecap:round;stroke-miterlimit:22.9256}
    .str0 {stroke:#297780;stroke-width:57.4;stroke-linecap:round;stroke-miterlimit:22.9256}
    .fil0 {fill:none}
    .fil2 {fill:#328A32;fill-rule:nonzero}
    .fil1 {fill:#E6E6E6;fill-rule:nonzero}
   ]]>
  </style>
 </defs>
 <g id="Ebene_x0020_1">
  <metadata id="CorelCorpID_0Corel-Layer"/>
  <path class="fil0 str0" d="M123.34 356.19c28.82,-52.21 57.64,-104.43 85.15,-114.86 27.51,-10.43 53.69,20.93 78.55,45.85 24.85,24.92 48.37,43.39 76.74,23.96 28.37,-19.44 61.59,-76.78 94.82,-134.13"/>
  <path class="fil0 str1" d="M94.76 334.77c35.13,-55.71 70.27,-111.42 99.87,-123.53 29.61,-12.11 53.68,19.39 76.22,44.79 22.54,25.41 43.53,44.72 70.2,26.95 26.67,-17.78 59,-72.65 91.34,-127.52"/>
  <path class="fil1 str2" d="M157.09 247.08c-25.52,0 -39.87,-5.39 -58.04,-22.89l21.99 -11.12 -85.33 -57.52 -0 0 0 0 -17.65 99.3 25.35 -9.27c27.2,35.71 69.04,56.76 113.69,56.76 64.46,0 119.16,-43.43 137.43,-103.11l-48.15 -39.92c-10.95,47.08 -41.85,87.78 -89.28,87.78z"/>
  <path class="fil2 str3" d="M160.55 261.73c-26.02,0 -40.66,-5.39 -59.19,-22.89l22.42 -11.12 -87.02 -57.52 -0 0 0 0 -18 99.3 25.85 -9.27c27.74,35.71 70.41,56.76 115.94,56.76 65.73,0 121.51,-43.43 140.15,-103.11l-49.1 -39.92c-11.17,47.08 -42.68,87.78 -91.05,87.78z"/>
  <path class="fil2 str3" d="M154.7 76.89c26.02,0 40.66,5.39 59.19,22.89l-22.42 11.12 87.02 57.52 0 0 0 0 18 -99.3 -25.85 9.27c-27.74,-35.71 -70.41,-56.76 -115.94,-56.76 -65.73,0 -121.51,43.43 -140.15,103.11l49.1 39.92c11.17,-47.08 42.68,-87.78 91.05,-87.78z"/>
 </g>
</svg>
