<?xml version="1.0" encoding="UTF-8"?>
<!DOCTYPE svg PUBLIC "-//W3C//DTD SVG 1.1//EN" "http://www.w3.org/Graphics/SVG/1.1/DTD/svg11.dtd">
<!-- Creator: CorelDRAW 2018 (64 Bit) -->
<svg xmlns="http://www.w3.org/2000/svg" xml:space="preserve" width="16px" height="16px" version="1.1" style="shape-rendering:geometricPrecision; text-rendering:geometricPrecision; image-rendering:optimizeQuality; fill-rule:evenodd; clip-rule:evenodd"
viewBox="0 0 16 16"
 >
 <defs>
  <style type="text/css">
   <![CDATA[
    .str0 {stroke:#FEFEFE;stroke-width:0.288;stroke-miterlimit:22.9256}
    .fil0 {fill:#66B322}
    .fil1 {fill:#FEFEFE;fill-rule:nonzero}
   ]]>
  </style>
 </defs>
 <g id="Ebene_x0020_1">
  <metadata id="CorelCorpID_0Corel-Layer"/>
  <path class="fil0" d="M8.715 0.945l1.757 3.56c0.122,0.248 0.359,0.419 0.632,0.459l3.928 0.571c0.689,0.1 0.963,0.945 0.465,1.431l-2.842 2.77c-0.198,0.193 -0.288,0.471 -0.242,0.743l0.672 3.912c0.117,0.686 -0.602,1.208 -1.218,0.885l-3.513 -1.847c-0.245,-0.129 -0.537,-0.129 -0.781,0l-3.514 1.847c-0.615,0.323 -1.335,-0.199 -1.217,-0.885l0.671 -3.912c0.047,-0.272 -0.044,-0.55 -0.241,-0.743l-2.843 -2.77c-0.497,-0.486 -0.223,-1.332 0.465,-1.431l3.929 -0.571c0.273,-0.04 0.509,-0.211 0.631,-0.459l1.757 -3.56c0.308,-0.623 1.197,-0.623 1.504,0z"/>
  <g id="_1903411023216">
  </g>
  <g id="_1903411024720">
  </g>
  <g id="_1903411023728">
  </g>
  <g id="_1903411024560">
  </g>
  <g id="_1903411021616">
  </g>
  <g id="_1903411021296">
  </g>
  <g id="_1903411022128">
  </g>
  <g id="_1903411021040">
  </g>
  <g id="_1903411022224">
  </g>
  <g id="_1903411052144">
  </g>
  <g id="_1903411052240">
  </g>
  <g id="_1903411052720">
  </g>
  <g id="_1903411052368">
  </g>
  <g id="_1903411051344">
  </g>
  <g id="_1903411050256">
  </g>
  <path class="fil1 str0" d="M5.682 12.039l0 -6.745 2.53 0c0.515,0 0.928,0.067 1.241,0.204 0.311,0.137 0.554,0.347 0.73,0.631 0.177,0.283 0.265,0.58 0.265,0.891 0,0.287 -0.079,0.559 -0.234,0.813 -0.155,0.254 -0.391,0.46 -0.706,0.617 0.408,0.119 0.722,0.323 0.94,0.612 0.22,0.287 0.33,0.628 0.33,1.021 0,0.317 -0.068,0.61 -0.201,0.882 -0.134,0.272 -0.299,0.481 -0.495,0.628 -0.196,0.146 -0.442,0.258 -0.738,0.333 -0.296,0.075 -0.659,0.113 -1.089,0.113l-2.573 0zm0.894 -3.909l1.459 0c0.396,0 0.68,-0.027 0.851,-0.079 0.227,-0.068 0.399,-0.181 0.513,-0.337 0.115,-0.157 0.173,-0.354 0.173,-0.591 0,-0.224 -0.053,-0.422 -0.162,-0.592 -0.106,-0.171 -0.26,-0.289 -0.46,-0.351 -0.199,-0.063 -0.541,-0.095 -1.025,-0.095l-1.349 0 0 2.045zm0 3.117l1.68 0c0.289,0 0.492,-0.01 0.61,-0.032 0.204,-0.036 0.376,-0.098 0.514,-0.184 0.139,-0.086 0.252,-0.212 0.341,-0.377 0.089,-0.165 0.134,-0.354 0.134,-0.57 0,-0.252 -0.065,-0.471 -0.195,-0.658 -0.129,-0.186 -0.308,-0.317 -0.537,-0.392 -0.228,-0.075 -0.558,-0.113 -0.986,-0.113l-1.561 0 0 2.326z"/>
 </g>
</svg>
