<?xml version="1.0" encoding="UTF-8"?>
<!DOCTYPE svg PUBLIC "-//W3C//DTD SVG 1.1//EN" "http://www.w3.org/Graphics/SVG/1.1/DTD/svg11.dtd">
<!-- Creator: CorelDRAW 2018 (64 Bit) -->
<svg xmlns="http://www.w3.org/2000/svg" xml:space="preserve" width="400px" height="400px" version="1.1" style="shape-rendering:geometricPrecision; text-rendering:geometricPrecision; image-rendering:optimizeQuality; fill-rule:evenodd; clip-rule:evenodd"
viewBox="0 0 400 400"
 >
 <defs>
  <style type="text/css">
   <![CDATA[
    .str0 {stroke:#FEFEFE;stroke-width:7.2;stroke-miterlimit:22.9256}
    .fil0 {fill:#66B322}
    .fil1 {fill:#FEFEFE;fill-rule:nonzero}
   ]]>
  </style>
 </defs>
 <g id="Ebene_x0020_1">
  <metadata id="CorelCorpID_0Corel-Layer"/>
  <path class="fil0" d="M217.887 23.632l43.92 88.992c3.052,6.189 8.957,10.479 15.789,11.471l98.214 14.268c17.207,2.504 24.067,23.642 11.623,35.775l-71.067 69.271c-4.933,4.81 -7.191,11.755 -6.029,18.558l16.782 97.818c2.939,17.131 -15.052,30.189 -30.436,22.11l-87.839 -46.177c-6.113,-3.213 -13.408,-3.213 -19.522,0l-87.838 46.177c-15.384,8.089 -33.375,-4.979 -30.436,-22.11l16.782 -97.818c1.162,-6.803 -1.097,-13.748 -6.029,-18.558l-71.067 -69.271c-12.444,-12.142 -5.584,-33.28 11.623,-35.775l98.214 -14.268c6.831,-0.992 12.737,-5.282 15.789,-11.471l43.92 -88.992c7.691,-15.591 29.916,-15.591 37.607,0z"/>
  <g id="_1903423536656">
  </g>
  <g id="_1903423538288">
  </g>
  <g id="_1903423536848">
  </g>
  <g id="_1903423538224">
  </g>
  <g id="_1903423532784">
  </g>
  <g id="_1939134114832">
  </g>
  <g id="_1939134114608">
  </g>
  <g id="_1939134114352">
  </g>
  <g id="_1939134115056">
  </g>
  <g id="_1939134113936">
  </g>
  <g id="_1939134112624">
  </g>
  <g id="_1939134113072">
  </g>
  <g id="_1939134113840">
  </g>
  <g id="_1939134110512">
  </g>
  <g id="_1939134111248">
  </g>
  <path class="fil1 str0" d="M142.039 300.973l0 -168.619 63.271 0c12.87,0 23.198,1.682 31.003,5.102 7.777,3.411 13.862,8.675 18.256,15.78 4.431,7.059 6.633,14.486 6.633,22.253 0,7.181 -1.965,13.975 -5.849,20.334 -3.884,6.36 -9.77,11.5 -17.66,15.421 10.205,2.986 18.047,8.089 23.509,15.308 5.49,7.181 8.24,15.704 8.24,25.513 0,7.927 -1.682,15.269 -5.027,22.063 -3.336,6.785 -7.456,12.01 -12.36,15.695 -4.904,3.657 -11.065,6.445 -18.444,8.325 -7.418,1.88 -16.489,2.825 -27.242,2.825l-64.33 0zm22.366 -97.732l36.464 0c9.894,0 16.999,-0.671 21.28,-1.965 5.688,-1.692 9.969,-4.517 12.832,-8.438 2.863,-3.922 4.318,-8.835 4.318,-14.76 0,-5.613 -1.332,-10.555 -4.044,-14.797 -2.665,-4.281 -6.511,-7.219 -11.5,-8.788 -4.989,-1.578 -13.541,-2.362 -25.635,-2.362l-33.715 0 0 51.11zm0 77.946l42.002 0c7.219,0 12.283,-0.274 15.231,-0.822 5.103,-0.898 9.421,-2.429 12.87,-4.593 3.459,-2.154 6.284,-5.3 8.523,-9.42 2.23,-4.12 3.336,-8.864 3.336,-14.25 0,-6.312 -1.616,-11.773 -4.866,-16.441 -3.223,-4.668 -7.702,-7.928 -13.428,-9.818 -5.688,-1.88 -13.937,-2.825 -24.652,-2.825l-39.016 0 0 58.169z"/>
 </g>
</svg>
