<?xml version="1.0" encoding="UTF-8"?>
<!DOCTYPE svg PUBLIC "-//W3C//DTD SVG 1.1//EN" "http://www.w3.org/Graphics/SVG/1.1/DTD/svg11.dtd">
<!-- Creator: CorelDRAW 2018 (64 Bit) -->
<svg xmlns="http://www.w3.org/2000/svg" xml:space="preserve" width="7.42424mm" height="10.5mm" version="1.1" style="shape-rendering:geometricPrecision; text-rendering:geometricPrecision; image-rendering:optimizeQuality; fill-rule:evenodd; clip-rule:evenodd"
viewBox="0 0 742.42 1050"
 xmlns:xlink="http://www.w3.org/1999/xlink">
 <defs>
  <style type="text/css">
   <![CDATA[
    .str0 {stroke:#327731;stroke-width:6.73;stroke-miterlimit:22.9256}
    .str1 {stroke:#FEFEFE;stroke-width:6.73;stroke-miterlimit:22.9256}
    .fil0 {fill:#66B322}
    .fil1 {fill:#FEFEFE;fill-rule:nonzero}
   ]]>
  </style>
 </defs>
 <g id="Ebene_x0020_1">
  <metadata id="CorelCorpID_0Corel-Layer"/>
  <path class="fil0 str0" d="M367.08 359.2l42.24 85.6c2.94,5.95 8.62,10.08 15.19,11.03l94.46 13.73c16.55,2.41 23.15,22.72 11.18,34.39l-68.35 66.63c-4.75,4.64 -6.93,11.32 -5.8,17.85l16.14 94.08c2.83,16.48 -14.47,29.04 -29.27,21.27l-84.48 -44.42c-5.88,-3.09 -12.91,-3.09 -18.78,0l-84.48 44.42c-14.8,7.77 -32.1,-4.79 -29.27,-21.27l16.14 -94.08c1.13,-6.54 -1.05,-13.22 -5.8,-17.85l-68.35 -66.63c-11.97,-11.67 -5.37,-32 11.18,-34.39l94.46 -13.73c6.57,-0.95 12.24,-5.08 15.19,-11.03l42.24 -85.6c7.39,-14.99 28.76,-14.99 36.17,0l0 0z"/>
  <g id="_1903210382928">
  </g>
  <g id="_1903210382096">
  </g>
  <g id="_1903210383152">
  </g>
  <g id="_1903210382608">
  </g>
  <g id="_1903210380944">
  </g>
  <g id="_1903210381552">
  </g>
  <g id="_1903210380432">
  </g>
  <g id="_1903210380304">
  </g>
  <g id="_1903210381776">
  </g>
  <g id="_1903210377840">
  </g>
  <g id="_1903210379504">
  </g>
  <g id="_1903210379312">
  </g>
  <g id="_1903210378576">
  </g>
  <g id="_1903210377552">
  </g>
  <g id="_1903210376784">
  </g>
  <path class="fil1 str1" d="M303.08 618.5l0 -141.61 53.14 0c10.81,0 19.48,1.42 26.04,4.28 6.52,2.87 11.63,7.29 15.32,13.26 3.73,5.93 5.57,12.16 5.57,18.69 0,6.03 -1.64,11.73 -4.91,17.08 -3.26,5.34 -8.2,9.65 -14.83,12.95 8.58,2.51 15.17,6.79 19.75,12.86 4.61,6.03 6.92,13.19 6.92,21.42 0,6.66 -1.42,12.83 -4.22,18.53 -2.8,5.71 -6.27,10.09 -10.38,13.19 -4.12,3.06 -9.3,5.4 -15.5,6.99 -6.23,1.58 -13.84,2.37 -22.87,2.37l-54.03 0 -0 0zm18.79 -82.08l30.62 0c8.31,0 14.28,-0.56 17.87,-1.65 4.78,-1.42 8.37,-3.79 10.78,-7.09 2.41,-3.3 3.62,-7.42 3.62,-12.4 0,-4.71 -1.12,-8.87 -3.39,-12.43 -2.24,-3.59 -5.47,-6.07 -9.66,-7.38 -4.18,-1.32 -11.37,-1.98 -21.52,-1.98l-28.32 0 0 42.91 0 0zm0 65.46l35.27 0c6.07,0 10.32,-0.22 12.79,-0.68 4.29,-0.76 7.91,-2.05 10.82,-3.86 2.9,-1.81 5.27,-4.45 7.15,-7.91 1.88,-3.47 2.8,-7.45 2.8,-11.96 0,-5.31 -1.35,-9.89 -4.08,-13.81 -2.7,-3.93 -6.46,-6.66 -11.27,-8.25 -4.79,-1.58 -11.71,-2.37 -20.71,-2.37l-32.76 0 0 48.85 -0 -0z"/>
 </g>
</svg>
