<?xml version="1.0" encoding="UTF-8"?>
<!DOCTYPE svg PUBLIC "-//W3C//DTD SVG 1.1//EN" "http://www.w3.org/Graphics/SVG/1.1/DTD/svg11.dtd">
<!-- Creator: CorelDRAW 2018 (64 Bit) -->
<svg xmlns="http://www.w3.org/2000/svg" xml:space="preserve" width="400px" height="400px" version="1.1" style="shape-rendering:geometricPrecision; text-rendering:geometricPrecision; image-rendering:optimizeQuality; fill-rule:evenodd; clip-rule:evenodd"
viewBox="0 0 400 400"
 >
 <defs>
  <style type="text/css">
   <![CDATA[
    .str0 {stroke:#FEFEFE;stroke-width:7.2;stroke-miterlimit:22.9256}
    .fil0 {fill:#3E6B17}
    .fil1 {fill:#66B322}
    .fil2 {fill:#FEFEFE;fill-rule:nonzero}
   ]]>
  </style>
 </defs>
 <g id="Ebene_x0020_1">
  <metadata id="CorelCorpID_0Corel-Layer"/>
  <path class="fil0" d="M252.008 82.708l38.656 78.343c2.693,5.442 7.89,9.222 13.9,10.091l86.45 12.568c15.147,2.201 21.185,20.797 10.233,31.475l-62.553 60.975c-4.346,4.243 -6.34,10.356 -5.31,16.337l14.769 86.101c2.589,15.081 -13.239,26.58 -26.789,19.465l-77.312 -40.65c-5.377,-2.825 -11.812,-2.825 -17.188,0l-77.313 40.65c-13.54,7.115 -29.377,-4.384 -26.788,-19.465l14.769 -86.101c1.03,-5.981 -0.964,-12.094 -5.311,-16.337l-62.553 -60.975c-10.951,-10.678 -4.913,-29.283 10.234,-31.475l86.45 -12.568c6.009,-0.869 11.206,-4.649 13.899,-10.091l38.657 -78.343c6.765,-13.72 26.325,-13.72 33.1,0z"/>
  <path class="fil1" d="M162.78 22.224l38.656 78.343c2.693,5.443 7.89,9.222 13.9,10.092l86.45 12.567c15.147,2.202 21.185,20.797 10.233,31.475l-62.553 60.975c-4.346,4.243 -6.34,10.356 -5.31,16.338l14.769 86.1c2.589,15.081 -13.239,26.58 -26.789,19.465l-77.312 -40.65c-5.377,-2.825 -11.812,-2.825 -17.188,0l-77.313 40.65c-13.54,7.115 -29.377,-4.384 -26.788,-19.465l14.769 -86.1c1.03,-5.982 -0.964,-12.095 -5.311,-16.338l-62.553 -60.975c-10.951,-10.678 -4.913,-29.283 10.234,-31.475l86.45 -12.567c6.009,-0.87 11.206,-4.649 13.899,-10.092l38.657 -78.343c6.765,-13.72 26.325,-13.72 33.1,0z"/>
  <g id="_1903419031568">
  </g>
  <g id="_1903419027952">
  </g>
  <g id="_1903419028016">
  </g>
  <g id="_1903419018896">
  </g>
  <g id="_1903419012976">
  </g>
  <g id="_1903419005392">
  </g>
  <g id="_1903418988048">
  </g>
  <g id="_1903418988592">
  </g>
  <g id="_1903419040240">
  </g>
  <g id="_1903419040560">
  </g>
  <g id="_1903411030448">
  </g>
  <g id="_1903411029232">
  </g>
  <g id="_1903411027248">
  </g>
  <g id="_1903411024848">
  </g>
  <g id="_1903411047824">
  </g>
  <path class="fil2 str0" d="M106.69 267.23l0 -136.662 51.28 0c10.432,0 18.804,1.37 25.135,4.129 6.293,2.769 11.226,7.04 14.788,12.794 3.6,5.726 5.376,11.736 5.376,18.039 0,5.82 -1.587,11.32 -4.743,16.479 -3.147,5.15 -7.918,9.317 -14.315,12.501 8.277,2.419 14.636,6.548 19.058,12.407 4.451,5.82 6.681,12.728 6.681,20.674 0,6.426 -1.37,12.379 -4.073,17.878 -2.702,5.509 -6.047,9.742 -10.016,12.728 -3.978,2.958 -8.976,5.216 -14.958,6.747 -6.009,1.521 -13.361,2.286 -22.073,2.286l-52.14 0zm18.133 -79.211l29.547 0c8.023,0 13.777,-0.539 17.245,-1.588 4.611,-1.37 8.079,-3.657 10.403,-6.841 2.325,-3.184 3.497,-7.163 3.497,-11.963 0,-4.545 -1.078,-8.561 -3.27,-11.991 -2.164,-3.467 -5.282,-5.858 -9.326,-7.124 -4.035,-1.276 -10.971,-1.909 -20.769,-1.909l-27.327 0 0 41.416zm0 63.176l34.036 0c5.858,0 9.959,-0.217 12.34,-0.661 4.139,-0.737 7.635,-1.975 10.441,-3.723 2.797,-1.748 5.084,-4.299 6.898,-7.635 1.814,-3.345 2.703,-7.191 2.703,-11.547 0,-5.121 -1.304,-9.543 -3.941,-13.332 -2.608,-3.79 -6.236,-6.426 -10.876,-7.957 -4.62,-1.521 -11.301,-2.286 -19.984,-2.286l-31.617 0 0 47.141z"/>
 </g>
</svg>
