<?xml version="1.0" encoding="UTF-8"?>
<!DOCTYPE svg PUBLIC "-//W3C//DTD SVG 1.1//EN" "http://www.w3.org/Graphics/SVG/1.1/DTD/svg11.dtd">
<!-- Creator: CorelDRAW 2018 (64 Bit) -->
<svg xmlns="http://www.w3.org/2000/svg" xml:space="preserve" width="4mm" height="4mm" version="1.1" style="shape-rendering:geometricPrecision; text-rendering:geometricPrecision; image-rendering:optimizeQuality; fill-rule:evenodd; clip-rule:evenodd"
viewBox="0 0 400 400"
 xmlns:xlink="http://www.w3.org/1999/xlink">
 <defs>
  <style type="text/css">
   <![CDATA[
    .str4 {stroke:#434242;stroke-width:8.57;stroke-miterlimit:22.9256}
    .str2 {stroke:#327731;stroke-width:5.44;stroke-miterlimit:22.9256}
    .str3 {stroke:#FEFEFE;stroke-width:5.44;stroke-miterlimit:22.9256}
    .str1 {stroke:#FEFEFE;stroke-width:0.0;stroke-miterlimit:22.9256}
    .str0 {stroke:#2B2A29;stroke-width:0.0;stroke-miterlimit:22.9256}
    .fil1 {fill:none}
    .fil0 {fill:#D7B56D}
    .fil5 {fill:#FECC00}
    .fil2 {fill:#3E6B17}
    .fil3 {fill:#66B322}
    .fil4 {fill:#FEFEFE;fill-rule:nonzero}
   ]]>
  </style>
 </defs>
 <g id="Ebene_x0020_1">
  <metadata id="CorelCorpID_0Corel-Layer"/>
  <rect class="fil0 str0" x="259.36" y="232.81" width="5.24" height="12.58" rx="9.98" ry="9.98"/>
  <rect class="fil1 str1" x="1.68" y="1.23" width="397.13" height="398.14"/>
 </g>
 <g id="Ebene_x0020_1_0">
  <metadata id="CorelCorpID_1Corel-Layer"/>
  <path class="fil2" d="M252.19 88.16l34.03 68.96c2.37,4.79 6.95,8.12 12.23,8.88l76.09 11.06c13.33,1.94 18.65,18.31 9.01,27.7l-55.06 53.67c-3.83,3.73 -5.58,9.12 -4.67,14.38l13 75.79c2.28,13.27 -11.65,23.4 -23.58,17.13l-68.05 -35.78c-4.73,-2.49 -10.4,-2.49 -15.13,0l-68.05 35.78c-11.92,6.26 -25.86,-3.86 -23.58,-17.13l13 -75.79c0.91,-5.26 -0.85,-10.65 -4.67,-14.38l-55.06 -53.67c-9.64,-9.4 -4.32,-25.78 9.01,-27.7l76.09 -11.06c5.29,-0.76 9.86,-4.09 12.23,-8.88l34.03 -68.96c5.95,-12.08 23.17,-12.08 29.13,0l0 0z"/>
  <path class="fil3 str2" d="M173.65 34.92l34.03 68.96c2.37,4.79 6.94,8.12 12.23,8.88l76.09 11.06c13.33,1.94 18.65,18.31 9.01,27.7l-55.06 53.67c-3.83,3.73 -5.58,9.12 -4.67,14.38l13 75.79c2.28,13.27 -11.65,23.4 -23.58,17.13l-68.05 -35.78c-4.73,-2.49 -10.4,-2.49 -15.13,0l-68.05 35.78c-11.92,6.26 -25.86,-3.86 -23.58,-17.13l13 -75.79c0.91,-5.27 -0.85,-10.65 -4.67,-14.38l-55.06 -53.67c-9.64,-9.4 -4.32,-25.78 9.01,-27.7l76.09 -11.06c5.29,-0.77 9.86,-4.09 12.23,-8.88l34.03 -68.96c5.95,-12.08 23.17,-12.08 29.13,0l0 0z"/>
  <g id="_1903210382928">
  </g>
  <g id="_1903210382096">
  </g>
  <g id="_1903210383152">
  </g>
  <g id="_1903210382608">
  </g>
  <g id="_1903210380944">
  </g>
  <g id="_1903210381552">
  </g>
  <g id="_1903210380432">
  </g>
  <g id="_1903210380304">
  </g>
  <g id="_1903210381776">
  </g>
  <g id="_1903210377840">
  </g>
  <g id="_1903210379504">
  </g>
  <g id="_1903210379312">
  </g>
  <g id="_1903210378576">
  </g>
  <g id="_1903210377552">
  </g>
  <g id="_1903210376784">
  </g>
  <path class="fil4 str3" d="M124.28 250.57l0 -120.29 45.14 0c9.18,0 16.55,1.21 22.12,3.63 5.54,2.44 9.88,6.2 13.02,11.26 3.17,5.04 4.73,10.33 4.73,15.88 0,5.12 -1.4,9.96 -4.17,14.51 -2.77,4.53 -6.97,8.2 -12.6,11 7.29,2.13 12.88,5.76 16.77,10.92 3.92,5.12 5.88,11.2 5.88,18.2 0,5.66 -1.21,10.9 -3.59,15.74 -2.38,4.85 -5.32,8.58 -8.82,11.2 -3.5,2.6 -7.9,4.59 -13.17,5.94 -5.29,1.34 -11.76,2.01 -19.43,2.01l-45.89 0 -0 0zm15.96 -69.72l26.01 0c7.06,0 12.13,-0.47 15.18,-1.4 4.06,-1.21 7.11,-3.22 9.16,-6.02 2.05,-2.8 3.08,-6.3 3.08,-10.53 0,-4 -0.95,-7.54 -2.88,-10.55 -1.9,-3.05 -4.65,-5.16 -8.21,-6.27 -3.55,-1.12 -9.66,-1.68 -18.28,-1.68l-24.05 0 0 36.45 0 0zm0 55.61l29.96 0c5.16,0 8.77,-0.19 10.86,-0.58 3.64,-0.65 6.72,-1.74 9.19,-3.28 2.46,-1.54 4.47,-3.78 6.07,-6.72 1.6,-2.94 2.38,-6.33 2.38,-10.16 0,-4.51 -1.15,-8.4 -3.47,-11.73 -2.3,-3.34 -5.49,-5.66 -9.57,-7 -4.07,-1.34 -9.95,-2.01 -17.59,-2.01l-27.83 0 0 41.49 -0 -0z"/>
  <path class="fil5 str4" d="M275.64 207.65l100.61 0c5.49,0 9.98,-4.49 9.98,-9.98l0 -37.7c0,-5.49 -4.49,-9.98 -9.98,-9.98l-100.61 0c-5.49,0 -10.05,4.49 -9.98,9.98l0.19 14.28c0.1,7.79 -4.43,13.56 -12.51,15.21 -5.38,1.09 16.81,18.2 22.3,18.2z"/>
  <rect class="fil0 str4" x="135.65" y="189.82" width="254.77" height="192.91" rx="5.56" ry="7.46"/>
 </g>
</svg>
