<?xml version="1.0" encoding="UTF-8"?>
<!DOCTYPE svg PUBLIC "-//W3C//DTD SVG 1.1//EN" "http://www.w3.org/Graphics/SVG/1.1/DTD/svg11.dtd">
<!-- Creator: CorelDRAW 2018 (64 Bit) -->
<svg xmlns="http://www.w3.org/2000/svg" xml:space="preserve" width="4mm" height="4mm" version="1.1" style="shape-rendering:geometricPrecision; text-rendering:geometricPrecision; image-rendering:optimizeQuality; fill-rule:evenodd; clip-rule:evenodd"
viewBox="0 0 400 400"
 xmlns:xlink="http://www.w3.org/1999/xlink">
 <defs>
  <style type="text/css">
   <![CDATA[
    .str0 {stroke:#CCCCCC;stroke-width:0.8;stroke-miterlimit:22.9256}
    .str1 {stroke:white;stroke-width:0.8;stroke-miterlimit:22.9256}
    .fil0 {fill:#CCCCCC}
    .fil1 {fill:white}
   ]]>
  </style>
 </defs>
 <g id="Ebene_x0020_1">
  <metadata id="CorelCorpID_0Corel-Layer"/>
  <path class="fil0 str0" d="M152.56 330.79c0,-6.27 -5.14,-11.42 -11.42,-11.42 -6.27,0 -11.42,5.14 -11.42,11.42 0,6.27 5.14,11.42 11.42,11.42 6.27,0 11.42,-5.02 11.42,-11.42z"/>
  <path class="fil0 str0" d="M72.39 330.79c0,-6.27 -5.02,-11.42 -11.42,-11.42 -6.27,0 -11.42,5.14 -11.42,11.42 0,6.27 5.14,11.42 11.42,11.42 6.27,0 11.42,-5.02 11.42,-11.42z"/>
  <path class="fil0 str0" d="M89.7 330.79c0,6.27 5.14,11.42 11.42,11.42 6.27,0 11.42,-5.02 11.42,-11.42 0,-6.27 -5.02,-11.42 -11.42,-11.42 -6.27,0.13 -11.42,5.14 -11.42,11.42z"/>
  <path class="fil0 str0" d="M359.56 329.97c0,-6.27 -5.02,-11.42 -11.42,-11.42 -6.27,0 -11.42,5.14 -11.42,11.42 0,6.27 5.14,11.42 11.42,11.42 6.27,0 11.42,-5.02 11.42,-11.42z"/>
  <path class="fil0 str0" d="M308.12 341.38c6.27,0 11.42,-5.02 11.42,-11.42 0,-6.27 -5.02,-11.42 -11.42,-11.42 -6.27,0 -11.42,5.14 -11.42,11.42 0,6.4 5.14,11.42 11.42,11.42z"/>
  <path class="fil0 str0" d="M279.39 329.97c0,-6.27 -5.02,-11.42 -11.42,-11.42 -6.27,0 -11.29,5.14 -11.29,11.42 0,6.27 5.02,11.42 11.29,11.42 6.27,0 11.42,-5.02 11.42,-11.42z"/>
  <rect class="fil0" x="195.5" y="252.22" width="17.36" height="42.42"/>
  <path class="fil1" d="M321.73 261.84l-25.79 -26.97c7.54,-8.29 12.18,-19.26 12.18,-31.32 0,-25.72 -20.92,-46.64 -46.64,-46.64 -25.72,0 -46.64,20.92 -46.64,46.64 0,25.72 20.92,46.64 46.64,46.64 10.55,0 20.26,-3.56 28.08,-9.49l25.92 27.11c0.85,0.89 1.98,1.33 3.12,1.33 1.08,0 2.15,-0.4 2.99,-1.2 1.72,-1.65 1.78,-4.38 0.13,-6.11zm-98.25 -58.29c0,-20.95 17.05,-38 38,-38 20.95,0 38,17.05 38,38 0,20.95 -17.05,38 -38,38 -20.95,0 -38,-17.05 -38,-38z"/>
  <path class="fil1 str1" d="M201.9 203.18c0.11,-17.41 7.75,-33.02 19.78,-43.86 -3.94,0.23 -7.97,0.42 -12.13,0.53 -3.76,0.12 -7.52,0.18 -11.26,0.18 -3.75,0 -7.53,-0.06 -11.29,-0.18 -31.71,-0.87 -56.99,-5.35 -75.18,-11.74 -8.55,-2.88 -15.88,-6.28 -21.53,-10.16l0 30.72 0 2.16 0 2.16 0 5.57c12.3,12.84 53.54,24.67 108,24.67 1.22,0 2.4,-0.03 3.61,-0.05z"/>
  <path class="fil1 str1" d="M188.08 146.43c1.41,0.04 2.81,0.08 4.24,0.1 1.97,0.03 3.96,0.05 5.97,0.05 2.01,0 4,-0.02 5.97,-0.05 1.43,-0.02 2.83,-0.06 4.24,-0.1 0.5,-0.01 1.01,-0.02 1.51,-0.03 48.62,-1.55 84.88,-12.59 96.28,-24.49l0 -5.57 0 -2.16 0 -2.16 0 -30.72c-21.03,14.44 -65.48,22.08 -108,22.08 -42.53,0 -86.98,-7.64 -108,-22.08l0 30.72 0 2.16 0 2.16 0 5.57c11.4,11.9 47.66,22.94 96.28,24.49 0.5,0.01 1.01,0.02 1.51,0.03z"/>
  <path class="fil1 str1" d="M306.3 65.82l0 -7.8 0 -2.16c0,-0.73 -0.24,-1.38 -0.58,-1.98 -4.85,-18.58 -42.12,-36.9 -107.42,-36.9 -65.14,0 -102.38,18.23 -107.37,36.76 -0.37,0.63 -0.63,1.33 -0.63,2.12l0 2.16 0 7.8c12.25,12.79 53.21,24.6 108,24.6 54.8,0 95.75,-11.81 108,-24.6z"/>
  <path class="fil1 str1" d="M203.35 216.51c-1.68,0.02 -3.33,0.06 -5.05,0.06 -53.34,0 -90.15,-9.89 -108,-22.47l0 35.43c0,0.7 0.19,1.36 0.51,1.95 5.1,21.15 50.75,36.93 107.5,36.93 20.58,0 39.67,-2.1 55.93,-5.75 -25.13,-3.08 -45.44,-21.82 -50.87,-46.15z"/>
  <path class="fil0" d="M165.99 329.84c0,-21.17 17.28,-38.46 38.46,-38.46 21.17,0 38.46,17.29 38.46,38.46 0,21.17 -17.29,38.46 -38.46,38.46 -21.3,0.13 -38.46,-17.15 -38.46,-38.46z"/>
  <g id="_2222150977168">
  </g>
  <g id="_2222150974864">
  </g>
  <g id="_2222150974480">
  </g>
  <g id="_2222150972304">
  </g>
  <g id="_2222150973744">
  </g>
  <g id="_2222150970064">
  </g>
  <g id="_2222150968912">
  </g>
  <g id="_2222150966192">
  </g>
  <g id="_2222150967536">
  </g>
  <g id="_2222150965424">
  </g>
  <g id="_2221831949696">
  </g>
  <g id="_2221831941376">
  </g>
  <g id="_2221831965600">
  </g>
  <g id="_2221831961600">
  </g>
  <g id="_2221831961312">
  </g>
 </g>
</svg>
