<?xml version="1.0" encoding="UTF-8"?>
<!DOCTYPE svg PUBLIC "-//W3C//DTD SVG 1.1//EN" "http://www.w3.org/Graphics/SVG/1.1/DTD/svg11.dtd">
<!-- Creator: CorelDRAW 2018 (64 Bit) -->
<svg xmlns="http://www.w3.org/2000/svg" xml:space="preserve" width="4mm" height="4mm" version="1.1" style="shape-rendering:geometricPrecision; text-rendering:geometricPrecision; image-rendering:optimizeQuality; fill-rule:evenodd; clip-rule:evenodd"
viewBox="0 0 400 400"
 xmlns:xlink="http://www.w3.org/1999/xlink">
 <defs>
  <style type="text/css">
   <![CDATA[
    .str0 {stroke:#295EA3;stroke-width:14.46;stroke-miterlimit:22.9256}
    .str1 {stroke:#FEFEFE;stroke-width:0.0;stroke-miterlimit:22.9256}
    .fil2 {fill:none}
    .fil0 {fill:#295EA3}
    .fil1 {fill:white}
   ]]>
  </style>
 </defs>
 <g id="Ebene_x0020_1">
  <metadata id="CorelCorpID_0Corel-Layer"/>
  <circle class="fil0" cx="201.98" cy="201.53" r="173.13"/>
  <circle class="fil0" cx="201.98" cy="201.53" r="159.82"/>
  <path class="fil1" d="M201.98 364.78c-90,0 -163.25,-73.25 -163.25,-163.25 0,-90 73.25,-163.25 163.25,-163.25 90,0 163.25,73.25 163.25,163.25 0,90 -73.25,163.25 -163.25,163.25zm0 -319.63c-86.14,0 -156.38,70.24 -156.38,156.38 0,86.14 70.24,156.38 156.38,156.38 86.14,0 156.38,-70.24 156.38,-156.38 0,-86.14 -70.24,-156.38 -156.38,-156.38z"/>
  <path class="fil1" d="M121.43 82.95c1.72,-0.43 3.44,-0.43 5.16,-0.21 1.72,0.43 3.01,1.07 4.51,1.93 1.29,0.86 2.58,2.15 3.65,3.44 1.29,1.72 2.15,3.44 2.58,5.16 0.43,1.72 0.64,3.44 0.21,4.94 -0.21,1.72 -0.86,3.22 -1.72,4.51 -0.86,1.5 -2.15,2.79 -3.65,3.87 -1.5,1.07 -3.22,1.93 -4.73,2.36 -1.72,0.43 -3.22,0.64 -4.94,0.43 -1.72,-0.21 -3.22,-0.86 -4.73,-1.72 -1.5,-1.07 -2.79,-2.36 -4.08,-3.87 -1.07,-1.5 -1.93,-3.22 -2.36,-4.73 -0.43,-1.72 -0.64,-3.22 -0.21,-4.94 0.21,-1.72 0.86,-3.22 1.72,-4.51 0.86,-1.5 2.15,-2.79 3.65,-3.87 1.29,-1.5 3.01,-2.36 4.94,-2.79l0 -0zm-3.22 9.24c-0.21,0.64 -0.43,1.5 -0.21,2.15 0.21,0.64 0.21,1.5 0.64,2.36 0.43,0.64 0.86,1.5 1.29,2.15 0.43,0.64 1.07,1.29 1.72,1.93 0.64,0.64 1.29,1.07 1.93,1.29 0.64,0.43 1.5,0.43 2.15,0.43 0.86,0 1.5,-0.43 2.36,-0.86 1.29,-1.07 1.93,-2.36 1.93,-3.87 -0.21,-1.5 -0.86,-3.22 -2.15,-4.94 -0.43,-0.64 -1.07,-1.29 -1.72,-1.93 -0.64,-0.64 -1.29,-1.07 -1.93,-1.29 -0.64,-0.21 -1.5,-0.43 -2.15,-0.43 -0.64,0 -1.5,0.43 -2.15,0.86 -0.86,0.86 -1.5,1.5 -1.72,2.15l0 -0zm33.29 1.07l0.43 -26.64 7.95 -2.58 16.54 20.84 -7.73 2.58 -1.93 -2.79 -7.73 2.58 0.21 3.44 -7.73 2.58 0 -0zm6.66 -20.84l0.43 9.24 4.94 -1.72 -5.37 -7.52 0 -0zm29.43 -14.39l8.16 -0.21 0.21 15.04c0,0.64 0,1.29 0.21,1.93 0,0.43 0.21,1.07 0.64,1.5 0.21,0.43 0.64,0.64 1.29,0.86 0.43,0.21 1.29,0.43 1.93,0.21 1.29,0 2.36,-0.43 3.01,-1.29 0.64,-0.86 0.86,-1.93 0.86,-3.44l-0.21 -15.04 8.16 -0.21 0.21 14.18c0,4.08 -0.86,6.87 -2.79,8.81 -1.93,1.93 -4.94,2.79 -9.02,3.01 -1.93,0 -3.65,-0.21 -5.16,-0.43 -1.5,-0.43 -2.79,-1.07 -3.87,-1.93 -1.07,-0.86 -1.72,-2.15 -2.36,-3.44 -0.64,-1.5 -0.86,-3.22 -0.86,-5.37l-0.43 -14.18 0 0zm44.04 2.36l21.91 6.44 -1.93 6.23 -7.09 -2.15 -5.16 17.61 -7.95 -2.36 5.16 -17.61 -7.09 -2.15 2.15 -6.01 0 0zm26.42 35.66l13.96 -20.84 6.87 4.51 -4.73 7.09 6.44 4.3 4.73 -7.09 6.87 4.51 -13.96 20.84 -6.87 -4.51 5.37 -7.95 -6.44 -4.3 -5.37 7.95 -6.87 -4.51z"/>
  <g id="_2900808165952">
   <circle class="fil0" cx="201.98" cy="201.53" r="106.97"/>
  </g>
  <g id="_2897748206736">
   <polygon class="fil1" points="106.34,257.18 257.16,106.35 257.92,107.11 107.1,257.94 "/>
   <polygon class="fil1" points="118.9,269.6 269.73,118.77 270.49,119.53 119.66,270.36 "/>
   <polygon class="fil1" points="131.61,282.18 282.44,131.35 283.2,132.11 132.37,282.94 "/>
   <polygon class="fil1" points="144.03,294.75 294.85,143.92 295.61,144.68 144.79,295.51 "/>
   <polygon class="fil1" points="156.74,307.33 307.56,156.5 308.32,157.26 157.5,308.09 "/>
   <polygon class="fil1" points="169.3,320.06 320.13,169.23 320.89,169.99 170.06,320.82 "/>
   <polygon class="fil1" points="181.86,332.48 332.69,181.65 333.45,182.41 182.62,333.24 "/>
   <polygon class="fil1" points="194.42,345.21 345.25,194.38 346.01,195.14 195.18,345.97 "/>
   <polygon class="fil1" points="56.09,206.87 206.92,56.04 207.68,56.8 56.85,207.63 "/>
   <polygon class="fil1" points="68.66,219.3 219.48,68.47 220.24,69.23 69.41,220.06 "/>
   <polygon class="fil1" points="81.22,232.02 232.04,81.19 232.8,81.95 81.98,232.78 "/>
   <polygon class="fil1" points="93.78,244.45 244.6,93.62 245.36,94.38 94.54,245.21 "/>
   <polygon class="fil1" points="144.12,107.05 144.88,106.29 295.71,257.12 294.95,257.88 "/>
   <polygon class="fil1" points="131.54,119.77 132.3,119.01 283.13,269.83 282.37,270.59 "/>
   <polygon class="fil1" points="118.97,132.18 119.73,131.42 270.56,282.24 269.8,283 "/>
   <polygon class="fil1" points="106.39,144.89 107.15,144.13 257.98,294.96 257.22,295.72 "/>
   <polygon class="fil1" points="93.82,157.3 94.57,156.54 245.4,307.37 244.65,308.13 "/>
   <polygon class="fil1" points="81.24,170.02 82,169.26 232.83,320.08 232.07,320.84 "/>
   <polygon class="fil1" points="68.66,182.42 69.42,181.67 220.25,332.49 219.49,333.25 "/>
   <polygon class="fil1" points="56.09,195.14 56.85,194.38 207.68,345.2 206.92,345.96 "/>
   <polygon class="fil1" points="194.43,56.81 195.19,56.05 346.02,206.88 345.26,207.63 "/>
   <polygon class="fil1" points="181.7,69.37 182.46,68.61 333.29,219.44 332.53,220.2 "/>
   <polygon class="fil1" points="169.27,81.93 170.03,81.17 320.86,232 320.1,232.76 "/>
   <polygon class="fil1" points="156.7,94.65 157.46,93.89 308.29,244.71 307.53,245.47 "/>
  </g>
  <path class="fil0 str0" d="M151.29 264.9l0 -19.76 18.04 -16.33c30.5,-27.71 45.54,-43.39 45.97,-59.72 0,-11.38 -6.87,-20.41 -22.98,-20.41 -12.03,0 -22.55,6.01 -29.86,11.6l-9.24 -23.41c10.53,-7.95 26.85,-14.39 45.97,-14.39 31.79,0 49.19,18.47 49.19,44.04 0,23.41 -16.97,42.32 -37.38,60.36l-12.89 10.74 0 0.43 52.84 0 0 26.85 -99.67 0z"/>
  <path class="fil1" d="M151.29 264.9l0 -19.76 18.04 -16.33c30.5,-27.71 45.54,-43.39 45.97,-59.72 0,-11.38 -6.87,-20.41 -22.98,-20.41 -12.03,0 -22.55,6.01 -29.86,11.6l-9.24 -23.41c10.53,-7.95 26.85,-14.39 45.97,-14.39 31.79,0 49.19,18.47 49.19,44.04 0,23.41 -16.97,42.32 -37.38,60.36l-12.89 10.74 0 0.43 52.84 0 0 26.85 -99.67 0zm131.25 55.21c-1.72,0.43 -3.44,0.43 -5.16,0.21 -1.72,-0.43 -3.01,-1.07 -4.51,-1.93 -1.29,-0.86 -2.58,-2.15 -3.65,-3.44 -1.29,-1.72 -2.15,-3.44 -2.58,-5.16 -0.43,-1.72 -0.64,-3.44 -0.21,-4.94 0.21,-1.72 0.86,-3.22 1.72,-4.51 0.86,-1.5 2.15,-2.79 3.65,-3.87 1.5,-1.07 3.22,-1.93 4.73,-2.36 1.72,-0.43 3.22,-0.64 4.94,-0.43 1.72,0.21 3.22,0.86 4.73,1.72 1.5,1.07 2.79,2.36 4.08,3.87 1.07,1.5 1.93,3.22 2.36,4.73 0.43,1.72 0.64,3.22 0.21,4.94 -0.43,1.72 -0.86,3.22 -1.72,4.51 -0.86,1.5 -2.15,2.79 -3.65,3.87 -1.29,1.5 -3.22,2.36 -4.94,2.79l0 0zm3.22 -9.24c0.21,-0.64 0.43,-1.5 0.21,-2.15 0,-0.86 -0.21,-1.5 -0.64,-2.36 -0.43,-0.64 -0.86,-1.5 -1.29,-2.15 -0.43,-0.64 -1.07,-1.29 -1.72,-1.93 -0.64,-0.64 -1.29,-1.07 -1.93,-1.29 -0.64,-0.43 -1.5,-0.43 -2.15,-0.43 -0.86,0 -1.5,0.43 -2.36,0.86 -1.29,1.07 -1.93,2.36 -1.93,3.87 0.21,1.5 0.86,3.22 2.15,4.94 0.43,0.64 1.07,1.29 1.72,1.93 0.64,0.64 1.29,1.07 1.93,1.29 0.64,0.21 1.5,0.43 2.15,0.43 0.64,0 1.5,-0.43 2.15,-0.86 0.86,-0.86 1.5,-1.5 1.72,-2.15l0 0zm-33.29 -1.07l-0.43 26.64 -7.95 2.58 -16.54 -20.84 7.73 -2.58 1.93 2.79 7.73 -2.58 -0.21 -3.44 7.73 -2.58 0 0zm-6.66 20.84l-0.43 -9.24 -4.94 1.72 5.37 7.52 -0 0zm-29.43 14.39l-8.16 0.21 -0.21 -15.04c0,-0.64 0,-1.29 -0.21,-1.93 0,-0.43 -0.21,-1.07 -0.64,-1.5 -0.21,-0.43 -0.64,-0.64 -1.29,-0.86 -0.43,-0.21 -1.29,-0.43 -1.93,-0.21 -1.29,0 -2.36,0.43 -3.01,1.29 -0.64,0.86 -0.86,1.93 -0.86,3.44l0.21 15.04 -8.16 0.21 -0.21 -14.18c0,-4.08 0.86,-6.87 2.79,-8.81 1.93,-1.93 4.94,-2.79 9.02,-3.01 1.93,0 3.65,0.21 5.16,0.43 1.5,0.43 2.79,1.07 3.87,1.93 1.07,0.86 1.72,2.15 2.36,3.44 0.64,1.5 0.86,3.22 0.86,5.37l0.43 14.18 -0 -0zm-44.04 -2.36l-21.91 -6.44 1.93 -6.23 7.09 2.15 5.16 -17.61 7.95 2.36 -5.16 17.61 7.09 2.15 -2.15 6.01 0 -0zm-26.42 -35.66l-13.96 20.84 -6.87 -4.51 4.73 -7.09 -6.44 -4.3 -4.73 7.09 -6.87 -4.51 13.96 -20.84 6.87 4.51 -5.37 7.95 6.44 4.3 5.37 -7.95 6.87 4.51z"/>
  <rect class="fil2 str1" x="0.6" y="3.03" width="398.79" height="393.94"/>
 </g>
</svg>
