<?xml version="1.0" encoding="UTF-8"?>
<!DOCTYPE svg PUBLIC "-//W3C//DTD SVG 1.1//EN" "http://www.w3.org/Graphics/SVG/1.1/DTD/svg11.dtd">
<!-- Creator: CorelDRAW 2018 (64 Bit) -->
<svg xmlns="http://www.w3.org/2000/svg" xml:space="preserve" width="4mm" height="4mm" version="1.1" style="shape-rendering:geometricPrecision; text-rendering:geometricPrecision; image-rendering:optimizeQuality; fill-rule:evenodd; clip-rule:evenodd"
viewBox="0 0 400 400"
 xmlns:xlink="http://www.w3.org/1999/xlink">
 <defs>
  <style type="text/css">
   <![CDATA[
    .fil0 {fill:#1C69A8;fill-rule:nonzero}
   ]]>
  </style>
 </defs>
 <g id="Ebene_x0020_1">
  <metadata id="CorelCorpID_0Corel-Layer"/>
  <path class="fil0" d="M283.81 325.76c-1.65,-1.74 -0.93,-19.29 -0.93,-19.29l-18.17 0.23 -9.8 -8.34 -0.78 -20.31 -0.03 -0.02c0.27,-0.09 -19.98,0.47 -19.98,0.47l-6.94 -9.33c0,0 -0.95,-18.43 -1.09,-18.58l-18.6 -1.05 -20.19 -16.61c-12.34,6.2 -26.13,9.92 -40.8,10.27 -53.96,1.27 -98.72,-42.38 -99.97,-97.51 -1.26,-55.15 41.48,-100.87 95.44,-102.15 53.98,-1.27 98.74,42.38 99.99,97.52 0.35,15.29 -2.8,29.81 -8.53,42.91l114.48 110.89c0,0 1.22,48.06 1.2,48.06l-47.52 1.2c0,0 -7.38,-7.38 -17.74,-18.34zm-135.19 -201.56c-0.3,-13.07 -10.97,-23.41 -23.85,-23.11 -12.88,0.3 -23.09,11.14 -22.79,24.21 0.3,13.07 10.99,23.42 23.87,23.11 12.88,-0.3 23.08,-11.15 22.78,-24.21zm0 0z"/>
  <path class="fil0" d="M219.31 207.14c7.54,-9.26 13.42,-19.91 17.33,-31.52l111.2 110.3 1.08 47.52 -129.6 -126.3zm0 0z"/>
 </g>
</svg>
