<?xml version="1.0" encoding="UTF-8"?>
<!DOCTYPE svg PUBLIC "-//W3C//DTD SVG 1.1//EN" "http://www.w3.org/Graphics/SVG/1.1/DTD/svg11.dtd">
<!-- Creator: CorelDRAW 2018 (64 Bit) -->
<svg xmlns="http://www.w3.org/2000/svg" xml:space="preserve" width="4.2mm" height="4.2mm" version="1.1" style="shape-rendering:geometricPrecision; text-rendering:geometricPrecision; image-rendering:optimizeQuality; fill-rule:evenodd; clip-rule:evenodd"
viewBox="0 0 420 420"
 xmlns:xlink="http://www.w3.org/1999/xlink">
 <defs>
  <style type="text/css">
   <![CDATA[
    .str0 {stroke:#CCCCCC;stroke-width:0.32;stroke-miterlimit:22.9256}
    .fil2 {fill:none}
    .fil1 {fill:#1D6FA6;fill-rule:nonzero}
    .fil0 {fill:#666666;fill-rule:nonzero}
   ]]>
  </style>
 </defs>
 <g id="Ebene_x0020_1">
  <metadata id="CorelCorpID_0Corel-Layer"/>
  <path class="fil0" d="M244.03 87.67l32.29 51.13 -23.82 15.04 -32.29 -51.13c-7.25,-11.48 -18.56,-19.43 -31.84,-22.39 -13.29,-2.97 -26.96,-0.58 -38.51,6.71 -23.83,15.05 -31.05,46.57 -16.08,70.26l47.6 75.36 -23.81 15.04 -47.6 -75.36c-23.21,-36.75 -12.03,-85.64 24.94,-108.99 17.91,-11.31 39.13,-15.01 59.73,-10.41 20.61,4.59 38.15,16.92 49.39,34.73zm0 0z"/>
  <path class="fil1" d="M328.18 377.86l-210.58 0 0 -175.27 210.58 0 0 175.27zm-82.4 -56.36l-11.18 -26.69c5.99,-3.47 9.95,-9.51 9.95,-16.38 0,-10.76 -9.7,-19.48 -21.66,-19.48 -11.97,0 -21.67,8.72 -21.67,19.48 0,6.87 3.97,12.91 9.96,16.38l-11.17 26.69 45.79 0zm0 0z"/>
  <rect class="fil2 str0" x="43.49" y="50.25" width="330.77" height="328.97"/>
 </g>
</svg>
