<?xml version="1.0" encoding="UTF-8"?>
<!DOCTYPE svg PUBLIC "-//W3C//DTD SVG 1.1//EN" "http://www.w3.org/Graphics/SVG/1.1/DTD/svg11.dtd">
<!-- Creator: CorelDRAW 2018 (64 Bit) -->
<svg xmlns="http://www.w3.org/2000/svg" xml:space="preserve" width="4mm" height="4mm" version="1.1" style="shape-rendering:geometricPrecision; text-rendering:geometricPrecision; image-rendering:optimizeQuality; fill-rule:evenodd; clip-rule:evenodd"
viewBox="0 0 400 400"
 xmlns:xlink="http://www.w3.org/1999/xlink">
 <defs>
  <style type="text/css">
   <![CDATA[
    .fil0 {fill:#1E62B0}
   ]]>
  </style>
 </defs>
 <g id="Ebene_x0020_1">
  <metadata id="CorelCorpID_0Corel-Layer"/>
  <path class="fil0" d="M293.6 143.77c-11.17,0 -20.23,9.07 -20.23,20.3l0 19.77 40.52 0 0 -19.77c0,-11.23 -9.12,-20.3 -20.28,-20.3zm-148.06 72.12l18.77 20.42 -32.52 24.33 -13.3 -24.33c-1.99,-3.5 -5.01,-10.3 -9.3,-20.42 -4.77,11.1 -7.88,17.92 -9.46,20.42l-13.56 24.33 -33.3 -24.33 20.15 -20.42c5.68,-5.62 11.17,-10.45 16.65,-14.4 -5.56,-0.47 -12.88,-1.52 -21.88,-3.25l-27.95 -4.48 12.96 -38.07 25.11 11.36c2.57,1.2 9.18,4.95 19.62,11.18 -2.3,-10.12 -3.7,-17.65 -4.29,-22.54l-3.63 -27.24 39.86 0 -3.23 27.24c-0.73,6.6 -2.25,14.13 -4.5,22.54 4.56,-2.32 7.6,-3.84 9.05,-4.71 4.96,-2.77 8.86,-4.69 11.51,-5.93l25.11 -11.9 12.43 38.07 -27.77 5.74c-5.09,1 -12.55,1.66 -22.61,2 6.73,5.35 12.1,10.1 16.06,14.4zm205.89 34.5c0,8.39 -6.8,15.21 -15.2,15.21l-85.2 0c-8.41,0 -15.27,-6.82 -15.27,-15.21l0 -51.35c0,-8.39 6.86,-15.19 15.27,-15.19l2.05 0 0 -19.77c0,-22.42 18.17,-40.6 40.52,-40.6 22.33,0 40.59,18.18 40.59,40.6l0 19.77 2.05 0c8.32,0 15.2,6.8 15.2,15.19l0 51.35z"/>
 </g>
</svg>
