<?xml version="1.0" encoding="UTF-8"?>
<!DOCTYPE svg PUBLIC "-//W3C//DTD SVG 1.1//EN" "http://www.w3.org/Graphics/SVG/1.1/DTD/svg11.dtd">
<!-- Creator: CorelDRAW 2018 (64 Bit) -->
<svg xmlns="http://www.w3.org/2000/svg" xml:space="preserve" width="4mm" height="4mm" version="1.1" style="shape-rendering:geometricPrecision; text-rendering:geometricPrecision; image-rendering:optimizeQuality; fill-rule:evenodd; clip-rule:evenodd"
viewBox="0 0 400 400"
 xmlns:xlink="http://www.w3.org/1999/xlink">
 <defs>
  <style type="text/css">
   <![CDATA[
    .fil0 {fill:none}
    .fil1 {fill:#00A9E5}
    .fil3 {fill:#00BFB3}
    .fil4 {fill:#019B8F}
    .fil2 {fill:#353535}
    .fil5 {fill:#F9B110}
    .fil6 {fill:#FED10A}
   ]]>
  </style>
 </defs>
 <g id="Ebene_x0020_1">
  <metadata id="CorelCorpID_0Corel-Layer"/>
  <rect class="fil0" x="291.2" y="76.92" width="305.3" height="39.98"/>
  <g id="Elasticsearch_1_">
   <g>
    <path class="fil1" d="M266.94 150.09l-75.74 0c0.57,1.72 1.03,3.45 1.49,5.17 2.41,8.73 4.02,17.7 4.71,27.01 0.23,3.68 0.46,7.47 0.46,11.26 0,3.79 -0.11,7.59 -0.46,11.26 -0.69,9.31 -2.3,18.27 -4.71,27.01 -0.46,1.72 -1.03,3.45 -1.49,5.17l75.74 0c23.79,0 43.1,-19.42 43.21,-43.33 0,-24.02 -19.31,-43.56 -43.21,-43.56z"/>
    <path class="fil2" d="M197.53 204.8c0.23,-3.68 0.46,-7.47 0.46,-11.26 0,-3.79 -0.11,-7.59 -0.46,-11.26 -0.69,-9.31 -2.3,-18.27 -4.71,-27.01 -0.46,-1.72 -1.03,-3.45 -1.49,-5.17l-117.11 0c-4.25,13.68 -6.67,28.27 -6.67,43.44 0,15.17 2.3,29.77 6.67,43.44l116.99 0c0.57,-1.72 1.03,-3.45 1.49,-5.17 2.53,-8.73 4.14,-17.7 4.83,-27.01z"/>
   </g>
   <g>
    <path class="fil3" d="M280.16 251.46l-94.24 0c-2.87,6.44 -6.09,12.64 -9.77,18.62 -5.52,8.85 -11.95,17.12 -19.31,24.59 -2.41,2.53 -4.94,4.83 -7.47,7.24 -5.17,4.6 -10.69,8.85 -16.55,12.64 22.87,15.06 50.22,23.9 79.64,23.9 50.22,0 94.47,-25.63 120.44,-64.47 -13.33,-13.91 -32.06,-22.53 -52.75,-22.53z"/>
    <path class="fil4" d="M176.04 269.96c3.68,-5.86 7.01,-12.07 9.77,-18.62l-106.07 0c11.26,25.74 29.88,47.69 53.1,62.98 5.86,-3.79 11.38,-8.04 16.55,-12.64 2.64,-2.3 5.06,-4.71 7.47,-7.24 7.24,-7.36 13.68,-15.52 19.19,-24.48z"/>
   </g>
   <g>
    <path class="fil5" d="M156.85 92.52c-2.41,-2.53 -4.94,-4.83 -7.47,-7.24 -5.17,-4.6 -10.69,-8.85 -16.55,-12.64 -23.33,15.28 -41.83,37.24 -53.1,62.98l106.19 0c-2.87,-6.44 -6.09,-12.64 -9.77,-18.62 -5.63,-8.85 -12.07,-17.01 -19.31,-24.48z"/>
    <path class="fil6" d="M212.47 48.73c-29.42,0 -56.77,8.85 -79.64,23.9 5.86,3.79 11.38,8.04 16.55,12.64 2.64,2.3 5.06,4.71 7.47,7.24 7.24,7.47 13.68,15.63 19.31,24.59 3.68,5.86 7.01,12.07 9.77,18.62l94.24 0c20.69,0 39.42,-8.62 52.75,-22.41 -25.97,-38.96 -70.22,-64.59 -120.44,-64.59z"/>
   </g>
  </g>
 </g>
</svg>
