<?xml version="1.0" encoding="UTF-8"?>
<!DOCTYPE svg PUBLIC "-//W3C//DTD SVG 1.1//EN" "http://www.w3.org/Graphics/SVG/1.1/DTD/svg11.dtd">
<!-- Creator: CorelDRAW 2018 (64 Bit) -->
<svg xmlns="http://www.w3.org/2000/svg" xml:space="preserve" width="400px" height="400px" version="1.1" style="shape-rendering:geometricPrecision; text-rendering:geometricPrecision; image-rendering:optimizeQuality; fill-rule:evenodd; clip-rule:evenodd"
viewBox="0 0 400 400"
 xmlns:xlink="http://www.w3.org/1999/xlink">
 <defs>
  <style type="text/css">
   <![CDATA[
    .str1 {stroke:#2B5278;stroke-width:12.7;stroke-miterlimit:22.9256}
    .str0 {stroke:#336699;stroke-width:12.7;stroke-miterlimit:22.9256}
    .fil2 {fill:#2A4F73}
    .fil1 {fill:#336699}
    .fil0 {fill:white}
   ]]>
  </style>
 </defs>
 <g id="Ebene_x0020_1">
  <metadata id="CorelCorpID_0Corel-Layer"/>
  <rect class="fil0 str0" x="53.23" y="108.94" width="121.75" height="227.92"/>
  <rect class="fil0 str0" x="230.67" y="108.94" width="121.75" height="227.92"/>
  <path class="fil1" d="M225.4 134.46l98.74 0c3.08,0 5.57,2.5 5.57,5.57l0 0c0,3.08 -2.49,5.57 -5.57,5.57l-98.74 0c-3.07,0 -5.57,-2.49 -5.57,-5.57l0 0c0,-3.07 2.5,-5.57 5.57,-5.57z"/>
  <path class="fil1" d="M74.42 134.84l98.74 0c3.07,0 5.57,2.49 5.57,5.57l0 0c0,3.07 -2.5,5.57 -5.57,5.57l-98.74 0c-3.08,0 -5.57,-2.5 -5.57,-5.57l0 0c0,-3.08 2.49,-5.57 5.57,-5.57z"/>
  <path class="fil1" d="M224.01 164.56l98.75 0c3.07,0 5.56,2.49 5.56,5.56l0 0c0,3.08 -2.49,5.57 -5.56,5.57l-98.75 0c-3.07,0 -5.56,-2.49 -5.56,-5.57l0 0c0,-3.07 2.49,-5.56 5.56,-5.56z"/>
  <path class="fil1" d="M73.02 164.93l98.74 0c3.08,0 5.57,2.5 5.57,5.57l0 0c0,3.08 -2.49,5.57 -5.57,5.57l-98.74 0c-3.07,0 -5.56,-2.49 -5.56,-5.57l0 0c0,-3.07 2.49,-5.57 5.56,-5.57z"/>
  <path class="fil1" d="M224.79 193.21l98.74 0c3.07,0 5.57,2.49 5.57,5.57l0 0c0,3.07 -2.5,5.57 -5.57,5.57l-98.74 0c-3.08,0 -5.57,-2.5 -5.57,-5.57l0 0c0,-3.08 2.49,-5.57 5.57,-5.57z"/>
  <path class="fil1" d="M73.79 193.59l98.75 0c3.07,0 5.56,2.49 5.56,5.57l0 0c0,3.07 -2.49,5.56 -5.56,5.56l-98.75 0c-3.07,0 -5.56,-2.49 -5.56,-5.56l0 0c0,-3.08 2.49,-5.57 5.57,-5.57z"/>
  <rect class="fil0 str1" x="127.42" y="64.64" width="153.73" height="287.77"/>
  <path class="fil2" d="M155.16 97.02l98.74 0c3.07,0 5.57,2.49 5.57,5.57l0 0c0,3.07 -2.5,5.56 -5.57,5.56l-98.74 0c-3.08,0 -5.57,-2.49 -5.57,-5.56l0 0c0,-3.08 2.49,-5.57 5.57,-5.57z"/>
  <path class="fil2" d="M153.76 127.11l98.74 0c3.08,0 5.57,2.5 5.57,5.57l0 0c0,3.07 -2.49,5.57 -5.57,5.57l-98.74 0c-3.07,0 -5.57,-2.5 -5.57,-5.57l0 0c0,-3.07 2.5,-5.57 5.57,-5.57z"/>
  <path class="fil2" d="M154.53 155.77l98.75 0c3.07,0 5.56,2.49 5.56,5.56l0 0c0,3.08 -2.49,5.57 -5.56,5.57l-98.75 0c-3.07,0 -5.56,-2.49 -5.56,-5.57l0 0c0,-3.07 2.49,-5.56 5.56,-5.56z"/>
  <ellipse class="fil2" cx="241.85" cy="234.52" rx="14.86" ry="15.06"/>
 </g>
</svg>
