<?xml version="1.0" encoding="UTF-8"?>
<!DOCTYPE svg PUBLIC "-//W3C//DTD SVG 1.1//EN" "http://www.w3.org/Graphics/SVG/1.1/DTD/svg11.dtd">
<!-- Creator: CorelDRAW 2018 (64 Bit) -->
<svg xmlns="http://www.w3.org/2000/svg" xml:space="preserve" width="400px" height="400px" version="1.1" style="shape-rendering:geometricPrecision; text-rendering:geometricPrecision; image-rendering:optimizeQuality; fill-rule:evenodd; clip-rule:evenodd"
viewBox="0 0 400 400"
 xmlns:xlink="http://www.w3.org/1999/xlink">
 <defs>
  <style type="text/css">
   <![CDATA[
    .fil0 {fill:#56698F}
    .fil2 {fill:white}
    .fil1 {fill:#231F20;fill-opacity:0.039216}
   ]]>
  </style>
 </defs>
 <g id="Ebene_x0020_1">
  <metadata id="CorelCorpID_0Corel-Layer"/>
  <path class="fil0" d="M381.38 198.52c0,-99.69 -80.81,-180.5 -180.5,-180.5 -99.69,0 -180.5,80.81 -180.5,180.5 0,99.69 80.81,180.5 180.5,180.5 99.69,0 180.5,-80.81 180.5,-180.5z"/>
  <path class="fil1" d="M291.13 198.52c0,-49.64 -40.61,-90.25 -90.25,-90.25 -42.31,0 -77.84,29.33 -87.43,68.25 -27.08,4.52 -47.95,27.64 -47.95,55.85 0,31.02 25.39,56.4 56.41,56.4l169.22 0c24.82,0 45.13,-20.3 45.13,-45.12 0,-24.82 -20.31,-45.13 -45.13,-45.13z"/>
  <path class="fil2" d="M291.13 187.24c0,-49.64 -40.61,-90.25 -90.25,-90.25 -42.31,0 -77.84,29.33 -87.43,68.25 -27.08,4.51 -47.95,27.64 -47.95,55.84 0,31.03 25.39,56.41 56.41,56.41l169.22 0c24.82,0 45.13,-20.3 45.13,-45.12 0,-24.82 -20.31,-45.13 -45.13,-45.13z"/>
  <g id="Layer_2">
  </g>
 </g>
</svg>
