<?xml version="1.0" encoding="UTF-8"?>
<!DOCTYPE svg PUBLIC "-//W3C//DTD SVG 1.1//EN" "http://www.w3.org/Graphics/SVG/1.1/DTD/svg11.dtd">
<!-- Creator: CorelDRAW 2018 (64 Bit) -->
<svg xmlns="http://www.w3.org/2000/svg" xml:space="preserve" width="400px" height="400px" version="1.1" style="shape-rendering:geometricPrecision; text-rendering:geometricPrecision; image-rendering:optimizeQuality; fill-rule:evenodd; clip-rule:evenodd"
viewBox="0 0 400 400"
 xmlns:xlink="http://www.w3.org/1999/xlink">
 <defs>
  <style type="text/css">
   <![CDATA[
    .str0 {stroke:#336699;stroke-width:0.8;stroke-miterlimit:22.9256}
    .str1 {stroke:white;stroke-width:0.3;stroke-miterlimit:22.9256}
    .fil0 {fill:#336699}
    .fil1 {fill:white;fill-rule:nonzero}
   ]]>
  </style>
 </defs>
 <g id="Ebene_x0020_1">
  <metadata id="CorelCorpID_0Corel-Layer"/>
  <path class="fil0 str0" d="M197.95 6.74c106.85,0 193.46,86.62 193.46,193.46 0,106.85 -86.61,193.47 -193.46,193.47 -106.85,0 -193.46,-86.62 -193.46,-193.47 0,-106.84 86.61,-193.46 193.46,-193.46z"/>
  <path class="fil1 str1" d="M47.04 263.49l0 -141.45 19.23 0 74.21 111.02 0 -111.02 17.98 0 0 141.45 -19.23 0 -74.21 -111.03 0 111.03 -17.98 0zm127.65 2.37l41.09 -146.19 14 0 -41.09 146.19 -14 0zm54.59 -2.37l54.27 -141.45 20.58 0 57.58 141.45 -21.3 0 -16.36 -42.87 -59.57 0 -15.34 42.87 -19.86 0zm40.7 -58.08l48.2 0 -14.75 -39.22c-4.44,-11.92 -7.8,-21.76 -10.14,-29.53 -1.94,9.22 -4.54,18.27 -7.8,27.23l-15.51 41.52z"/>
 </g>
</svg>
