<?xml version="1.0" encoding="UTF-8"?>
<!DOCTYPE svg PUBLIC "-//W3C//DTD SVG 1.1//EN" "http://www.w3.org/Graphics/SVG/1.1/DTD/svg11.dtd">
<!-- Creator: CorelDRAW 2018 (64 Bit) -->
<svg xmlns="http://www.w3.org/2000/svg" xml:space="preserve" width="400px" height="400px" version="1.1" style="shape-rendering:geometricPrecision; text-rendering:geometricPrecision; image-rendering:optimizeQuality; fill-rule:evenodd; clip-rule:evenodd"
viewBox="0 0 400 400"
 xmlns:xlink="http://www.w3.org/1999/xlink">
 <defs>
  <style type="text/css">
   <![CDATA[
    .fil3 {fill:#AD213B;fill-rule:nonzero}
    .fil4 {fill:#BA2133;fill-rule:nonzero}
    .fil0 {fill:#C22133;fill-rule:nonzero}
    .fil1 {fill:#DB212E;fill-rule:nonzero}
    .fil2 {fill:#EB2126;fill-rule:nonzero}
   ]]>
  </style>
 </defs>
 <g id="Ebene_x0020_1">
  <metadata id="CorelCorpID_0Corel-Layer"/>
  <path id="path44560" class="fil0" d="M394.4 103.15c-4.37,-9.03 -9.42,-17.73 -15.29,-25.94l-62.66 22.8c7.29,7.46 13.41,15.84 18.42,24.8l59.53 -21.66zm-276.97 69.3l-62.68 22.8c0.8,10.05 2.54,19.98 4.97,29.71l59.54 -21.68c-1.94,-10.07 -2.62,-20.45 -1.83,-30.83z"/>
  <path id="path44564" class="fil1" d="M256.52 85.4c13.04,6.08 24.33,14.38 33.86,24.1l62.65 -22.8c-17.35,-24.35 -40.99,-44.71 -69.96,-58.22 -89.58,-41.77 -196.45,-2.88 -238.21,86.69 -13.52,28.98 -18.55,59.77 -16.18,89.58l62.66 -22.8c1.04,-13.58 4.35,-27.19 10.43,-40.24 27.14,-58.19 96.56,-83.45 154.75,-56.31z"/>
  <path id="path44572" class="fil1" d="M323.35 199.9c-1,13.57 -4.42,27.18 -10.52,40.24 -27.13,58.2 -96.56,83.45 -154.74,56.32 -13.06,-6.09 -24.43,-14.32 -33.92,-24.07l-62.54 22.75c17.32,24.36 40.94,44.72 69.92,58.24 89.58,41.77 196.43,2.88 238.2,-86.7 13.53,-28.97 18.52,-59.75 16.14,-89.54l-62.54 22.76 0 0z"/>
  <g>
   <path id="path44576" class="fil2" d="M338.76 123.4l-59.54 21.67c11.07,19.81 16.29,42.62 14.58,65.57l62.53 -22.74c-1.79,-22.44 -7.77,-44.35 -17.57,-64.5l0 0zm-275.14 100.13l-59.54 21.68c5.47,21.71 14.96,42.34 28,60.7l62.53 -22.77c-16.05,-16.48 -26.72,-37.34 -30.99,-59.61z"/>
  </g>
  <path id="path44584" class="fil3" d="M385.32 86.64c-1.97,-3.21 -4.02,-6.36 -6.21,-9.43l-62.65 22.8c2.75,2.82 5.29,5.82 7.71,8.89l61.15 -22.26zm-268.13 98.39c-0.15,-4.18 -0.09,-8.37 0.24,-12.58l-62.68 22.8c0.32,4.02 0.83,8.01 1.43,11.98l61.01 -22.2 0 0z"/>
  <g>
   <path id="path44588" class="fil4" d="M385.88 177.14l-62.53 22.76c-0.66,9 -2.41,18.02 -5.28,26.89l68.06 -24.81c0.49,-8.32 0.41,-16.62 -0.25,-24.84l0 0zm-324.24 118.01c4.82,6.78 10.15,13.25 15.94,19.35l68.07 -24.82c-7.95,-4.98 -15.14,-10.79 -21.49,-17.29l-62.52 22.76z"/>
  </g>
 </g>
</svg>
