<?xml version="1.0" encoding="UTF-8"?>
<!DOCTYPE svg PUBLIC "-//W3C//DTD SVG 1.1//EN" "http://www.w3.org/Graphics/SVG/1.1/DTD/svg11.dtd">
<!-- Creator: CorelDRAW 2018 (64 Bit) -->
<svg xmlns="http://www.w3.org/2000/svg" xml:space="preserve" width="400px" height="400px" version="1.1" style="shape-rendering:geometricPrecision; text-rendering:geometricPrecision; image-rendering:optimizeQuality; fill-rule:evenodd; clip-rule:evenodd"
viewBox="0 0 400 400"
 xmlns:xlink="http://www.w3.org/1999/xlink">
 <defs>
  <style type="text/css">
   <![CDATA[
    .fil0 {fill:#B01717}
   ]]>
  </style>
 </defs>
 <g id="Ebene_x0020_1">
  <metadata id="CorelCorpID_0Corel-Layer"/>
  <g id="Warning_icon.svg">
   <g>
    <path class="fil0" d="M371.48 312.16l-144.94 -254.53c-4.6,-8.08 -12.37,-12.93 -20.78,-12.93 -8.42,0 -16.19,4.82 -20.78,12.9l-144.94 254.52c-4.57,8.02 -4.78,17.23 -0.57,24.48 4.21,7.24 12.24,11.66 21.47,11.66l289.64 0c9.23,0 17.25,-4.42 21.47,-11.66 4.21,-7.25 4,-16.41 -0.57,-24.44zm-166.68 -186c11.1,0 20.09,8.99 20.09,20.08l0 72.32c0,11.09 -8.99,20.08 -20.09,20.08 -11.09,0 -20.08,-8.99 -20.08,-20.08l0 -72.32c0,-11.09 8.99,-20.08 20.08,-20.08zm0.96 135.18c11.09,0 20.09,9 20.09,20.09 0,11.1 -9,20.09 -20.09,20.09 -11.09,0 -20.09,-8.99 -20.09,-20.09 0,-11.09 9,-20.09 20.09,-20.09z"/>
   </g>
   <g>
   </g>
   <g>
   </g>
   <g>
   </g>
   <g>
   </g>
   <g>
   </g>
   <g>
   </g>
   <g>
   </g>
   <g>
   </g>
   <g>
   </g>
   <g>
   </g>
   <g>
   </g>
   <g>
   </g>
   <g>
   </g>
   <g>
   </g>
   <g>
   </g>
  </g>
 </g>
</svg>
