<?xml version="1.0" encoding="UTF-8"?>
<!DOCTYPE svg PUBLIC "-//W3C//DTD SVG 1.1//EN" "http://www.w3.org/Graphics/SVG/1.1/DTD/svg11.dtd">
<!-- Creator: CorelDRAW 2018 (64 Bit) -->
<svg xmlns="http://www.w3.org/2000/svg" xml:space="preserve" width="4mm" height="4mm" version="1.1" style="shape-rendering:geometricPrecision; text-rendering:geometricPrecision; image-rendering:optimizeQuality; fill-rule:evenodd; clip-rule:evenodd"
viewBox="0 0 400 400"
 >
 <defs>
  <style type="text/css">
   <![CDATA[
    .str0 {stroke:#117DB0;stroke-width:18.9;stroke-miterlimit:22.9256}
    .fil0 {fill:#117DB0;fill-rule:nonzero}
    .fil1 {fill:white;fill-rule:nonzero}
   ]]>
  </style>
 </defs>
 <g id="Ebene_x0020_1">
  <metadata id="CorelCorpID_0Corel-Layer"/>
  <path class="fil0 str0" d="M56.46 34.27c-20.2,0 -36.66,18.67 -36.66,41.6l0 249.14c0,22.83 16.46,41.6 36.66,41.6l292.88 0c20.21,0 36.66,-18.78 36.66,-41.6l0 -193.86c0,-22.81 -13.24,-42.41 -33.45,-42.41l-146.78 0.3 -31.05 -54.37 -118.27 -0.4z"/>
  <path id="path44560" class="fil1" d="M314.31 177.97c-2.68,-5.55 -5.79,-10.89 -9.4,-15.94l-38.51 14.01c4.48,4.58 8.24,9.73 11.32,15.24l36.59 -13.31 0 0zm-170.22 42.59l-38.51 14.01c0.49,6.18 1.56,12.27 3.05,18.26l36.59 -13.32c-1.19,-6.19 -1.61,-12.57 -1.12,-18.95z"/>
  <path id="path44564" class="fil1" d="M229.57 167.06c8.01,3.74 14.96,8.84 20.81,14.82l38.51 -14.01c-10.66,-14.97 -25.19,-27.48 -42.99,-35.77 -55.05,-25.67 -120.73,-1.78 -146.4,53.27 -8.31,17.8 -11.4,36.73 -9.94,55.05l38.51 -14.01c0.64,-8.34 2.67,-16.71 6.42,-24.73 16.68,-35.76 59.34,-51.29 95.1,-34.6l0 -0.01z"/>
  <path id="path44572" class="fil1" d="M270.64 237.43c-0.61,8.34 -2.72,16.71 -6.46,24.73 -16.68,35.77 -59.34,51.29 -95.1,34.61 -8.03,-3.74 -15.01,-8.8 -20.84,-14.79l-38.44 13.98c10.65,14.97 25.16,27.48 42.97,35.78 55.05,25.67 120.71,1.78 146.39,-53.27 8.32,-17.81 11.38,-36.72 9.91,-55.03l-38.43 13.98 0 0 0 0z"/>
  <g id="_2100038178160">
   <path id="path44576" class="fil1" d="M280.11 190.42l-36.59 13.31c6.8,12.18 10.01,26.19 8.96,40.3l38.43 -13.98c-1.11,-13.8 -4.78,-27.26 -10.8,-39.64l0 0zm-169.09 61.53l-36.59 13.32c3.36,13.34 9.19,26.02 17.21,37.31l38.43 -13.99c-9.86,-10.13 -16.42,-22.94 -19.05,-36.63z"/>
  </g>
  <path id="path44584" class="fil1" d="M308.72 167.83c-1.21,-1.97 -2.47,-3.91 -3.82,-5.79l-38.5 14.01c1.69,1.73 3.25,3.57 4.73,5.46l37.58 -13.68zm-164.77 60.46c-0.09,-2.57 -0.06,-5.14 0.14,-7.73l-38.51 14.01c0.19,2.47 0.51,4.92 0.88,7.36l37.49 -13.64 0 0 0 0z"/>
  <g id="_2100038173648">
   <path id="path44588" class="fil1" d="M309.07 223.44l-38.43 13.98c-0.41,5.54 -1.48,11.07 -3.25,16.53l41.83 -15.24c0.3,-5.12 0.26,-10.21 -0.15,-15.27l0 0 0 0zm-199.26 72.52c2.96,4.17 6.24,8.15 9.79,11.9l41.84 -15.26c-4.89,-3.05 -9.31,-6.62 -13.21,-10.62l-38.42 13.98z"/>
  </g>
 </g>
</svg>
