<?xml version="1.0" encoding="UTF-8"?>
<!DOCTYPE svg PUBLIC "-//W3C//DTD SVG 1.1//EN" "http://www.w3.org/Graphics/SVG/1.1/DTD/svg11.dtd">
<!-- Creator: CorelDRAW 2018 (64 Bit) -->
<svg xmlns="http://www.w3.org/2000/svg" xml:space="preserve" width="400px" height="400px" version="1.1" style="shape-rendering:geometricPrecision; text-rendering:geometricPrecision; image-rendering:optimizeQuality; fill-rule:evenodd; clip-rule:evenodd"
viewBox="0 0 400 400"
 >
 <defs>
  <style type="text/css">
   <![CDATA[
    .fil1 {fill:#003399}
    .fil0 {fill:#336699}
   ]]>
  </style>
 </defs>
 <g id="Ebene_x0020_1">
  <metadata id="CorelCorpID_0Corel-Layer"/>
  <path class="fil0" d="M345.28 134.27c0,-56.65 -46.36,-103.01 -103.02,-103.01 -48.28,0 -88.84,33.48 -99.79,77.9 -30.9,5.15 -54.72,31.55 -54.72,63.74 0,1.2 0.03,2.39 0.1,3.57 20.02,-17.4 47.06,-28.14 76.8,-28.14 56.41,0 103.42,38.88 110.93,88.96l69.7 0c28.32,0 51.5,-23.18 51.5,-51.51 0,-28.33 -23.18,-51.51 -51.5,-51.51z"/>
  <path class="fil1" d="M264.68 267.19c0,-56.65 -46.36,-103.01 -103.02,-103.01 -48.28,0 -88.84,33.48 -99.79,77.9 -30.9,5.15 -54.72,31.55 -54.72,63.74 0,35.41 28.97,64.38 64.38,64.38l193.15 0c28.32,0 51.5,-23.17 51.5,-51.5 0,-28.33 -23.18,-51.51 -51.5,-51.51z"/>
 </g>
</svg>
