<?xml version="1.0" encoding="UTF-8"?>
<!DOCTYPE svg PUBLIC "-//W3C//DTD SVG 1.1//EN" "http://www.w3.org/Graphics/SVG/1.1/DTD/svg11.dtd">
<!-- Creator: CorelDRAW 2018 (64 Bit) -->
<svg xmlns="http://www.w3.org/2000/svg" xml:space="preserve" width="400px" height="400px" version="1.1" style="shape-rendering:geometricPrecision; text-rendering:geometricPrecision; image-rendering:optimizeQuality; fill-rule:evenodd; clip-rule:evenodd"
viewBox="0 0 400 400"
 >
 <defs>
  <style type="text/css">
   <![CDATA[
    .str6 {stroke:white;stroke-width:0.02;stroke-miterlimit:22.9256}
    .str3 {stroke:white;stroke-width:0.18;stroke-miterlimit:22.9256}
    .str5 {stroke:white;stroke-width:21.99;stroke-miterlimit:22.9256}
    .str2 {stroke:white;stroke-width:0.29;stroke-miterlimit:22.9256}
    .str4 {stroke:white;stroke-width:0.19;stroke-miterlimit:22.9256}
    .str0 {stroke:#326DE6;stroke-width:53.92;stroke-linejoin:round;stroke-miterlimit:22.9256}
    .str1 {stroke:white;stroke-width:22.32;stroke-linejoin:round;stroke-miterlimit:22.9256}
    .fil1 {fill:none}
    .fil0 {fill:#326DE6}
    .fil2 {fill:white}
   ]]>
  </style>
 </defs>
 <g id="Ebene_x0020_1">
  <metadata id="CorelCorpID_0Corel-Layer"/>
  <polygon class="fil0" points="200.65,42.21 324.95,101.56 355.66,234.95 269.65,341.93 131.71,341.94 45.69,234.98 76.37,101.59 "/>
  <polygon class="fil1 str0" points="200.65,42.21 324.95,101.56 355.66,234.95 269.65,341.93 131.71,341.94 45.69,234.98 76.37,101.59 "/>
  <path class="fil1 str1" d="M181.22 113.61c46.75,-10.62 93.35,18.7 104.1,65.48 10.74,46.78 -18.45,93.3 -65.19,103.92 -46.75,10.61 -93.36,-18.71 -104.1,-65.49 -10.75,-46.78 18.44,-93.3 65.19,-103.91z"/>
  <polygon class="fil2" points="192.65,98.85 202.2,98.87 202.81,169.13 188.66,169.26 "/>
  <polygon class="fil1 str2" points="192.65,98.85 202.2,98.87 202.81,169.13 188.66,169.26 "/>
  <polygon class="fil2" points="208.69,98.85 199.13,98.87 198.53,169.13 212.68,169.26 "/>
  <polygon class="fil1 str2" points="208.69,98.85 199.13,98.87 198.53,169.13 212.68,169.26 "/>
  <path class="fil2" d="M208.1 72.33c0,4.57 -3.33,8.27 -7.43,8.27 -4.11,0 -7.44,-3.7 -7.45,-8.27 0,-4.57 3.34,-8.27 7.45,-8.27 4.1,0 7.43,3.7 7.43,8.27z"/>
  <path class="fil1 str3" d="M208.1 72.33c0,4.57 -3.33,8.27 -7.43,8.27 -4.11,0 -7.44,-3.7 -7.45,-8.27 0,-4.57 3.34,-8.27 7.45,-8.27 4.1,0 7.43,3.7 7.43,8.27z"/>
  <path class="fil2" d="M193.23 72.22c0,0.65 -0.03,1.59 -0.01,2.22 0.1,2.63 0.68,4.66 1.02,7.08 0.63,5.19 1.15,9.5 0.83,13.5 -0.29,2 -1.45,2.79 -2.42,3.71l11.74 7.77 -1.77 -34.22 -9.39 -0.06 0 0z"/>
  <path class="fil1 str4" d="M193.23 72.22c0,0.65 -0.03,1.59 -0.01,2.22 0.1,2.63 0.68,4.66 1.02,7.08 0.63,5.19 1.15,9.5 0.83,13.5 -0.29,2 -1.45,2.79 -2.42,3.71l11.74 7.77 -1.77 -34.22 -9.39 -0.06 0 0z"/>
  <path class="fil2" d="M208.1 72.22c0,0.65 0.03,1.59 0.01,2.22 -0.1,2.63 -0.67,4.66 -1.02,7.08 -0.63,5.19 -1.16,9.5 -0.83,13.5 0.3,2 1.45,2.79 2.42,3.71l-11.73 7.77 1.76 -34.22 9.39 -0.06 0 0z"/>
  <path class="fil1 str4" d="M208.1 72.22c0,0.65 0.03,1.59 0.01,2.22 -0.1,2.63 -0.67,4.66 -1.02,7.08 -0.63,5.19 -1.16,9.5 -0.83,13.5 0.3,2 1.45,2.79 2.42,3.71l-11.73 7.77 1.76 -34.22 9.39 -0.06 0 0z"/>
  <polygon class="fil1 str5" points="219.78,213.52 200.64,222.69 181.5,213.51 176.77,192.89 190.02,176.35 211.27,176.35 224.52,192.89 "/>
  <polygon class="fil2" points="117.83,142.56 123.81,135.1 179.11,178.42 170.39,189.57 "/>
  <polygon class="fil1 str2" points="117.83,142.56 123.81,135.1 179.11,178.42 170.39,189.57 "/>
  <polygon class="fil2" points="127.83,130.01 121.89,137.49 176.45,181.76 185.37,170.78 "/>
  <polygon class="fil1 str2" points="127.83,130.01 121.89,137.49 176.45,181.76 185.37,170.78 "/>
  <path class="fil2" d="M106.73 113.93c3.57,2.85 4.38,7.75 1.82,10.97 -2.56,3.21 -7.53,3.51 -11.1,0.66 -3.56,-2.85 -4.38,-7.75 -1.82,-10.97 2.56,-3.21 7.53,-3.5 11.1,-0.66z"/>
  <path class="fil1 str3" d="M106.73 113.93c3.57,2.85 4.38,7.75 1.82,10.97 -2.56,3.21 -7.53,3.51 -11.1,0.66 -3.56,-2.85 -4.38,-7.75 -1.82,-10.97 2.56,-3.21 7.53,-3.5 11.1,-0.66z"/>
  <path class="fil2" d="M97.37 125.49c0.51,0.4 1.23,1.02 1.74,1.4 2.11,1.56 4.06,2.37 6.16,3.61 4.45,2.75 8.14,5.02 11.07,7.76 1.38,1.49 1.27,2.88 1.39,4.21l13.39 -4.33 -27.85 -19.95 -5.9 7.3 0 0z"/>
  <path class="fil1 str4" d="M97.37 125.49c0.51,0.4 1.23,1.02 1.74,1.4 2.11,1.56 4.06,2.37 6.16,3.61 4.45,2.75 8.14,5.02 11.07,7.76 1.38,1.49 1.27,2.88 1.39,4.21l13.39 -4.33 -27.85 -19.95 -5.9 7.3 0 0z"/>
  <path class="fil2" d="M106.64 113.87c0.51,0.4 1.27,0.96 1.75,1.37 1.99,1.72 3.21,3.43 4.89,5.21 3.68,3.73 6.71,6.82 10.04,9.07 1.75,1.01 3.08,0.6 4.41,0.42l-1.24 14.02 -25.66 -22.72 5.81 -7.37 0 0z"/>
  <path class="fil1 str4" d="M106.64 113.87c0.51,0.4 1.27,0.96 1.75,1.37 1.99,1.72 3.21,3.43 4.89,5.21 3.68,3.73 6.71,6.82 10.04,9.07 1.75,1.01 3.08,0.6 4.41,0.42l-1.24 14.02 -25.66 -22.72 5.81 -7.37 0 0z"/>
  <polygon class="fil2" points="105.5,228.35 103.4,219.03 171.75,202.8 175.03,216.56 "/>
  <polygon class="fil1 str2" points="105.5,228.35 103.4,219.03 171.75,202.8 175.03,216.56 "/>
  <polygon class="fil2" points="101.92,212.7 104.08,222.01 172.7,206.96 169.68,193.14 "/>
  <polygon class="fil1 str2" points="101.92,212.7 104.08,222.01 172.7,206.96 169.68,193.14 "/>
  <path class="fil2" d="M76.2 219.17c4.45,-1.01 8.8,1.41 9.71,5.42 0.92,4.01 -1.95,8.08 -6.4,9.09 -4.45,1.02 -8.8,-1.4 -9.71,-5.41 -0.91,-4 1.95,-8.08 6.4,-9.1l0 0z"/>
  <path class="fil1 str3" d="M76.2 219.17c4.45,-1.01 8.8,1.41 9.71,5.42 0.92,4.01 -1.95,8.08 -6.4,9.09 -4.45,1.02 -8.8,-1.4 -9.71,-5.41 -0.91,-4 1.95,-8.08 6.4,-9.1l0 0z"/>
  <path class="fil2" d="M79.4 233.7c0.64,-0.14 1.56,-0.32 2.17,-0.49 2.55,-0.67 4.39,-1.69 6.68,-2.57 4.92,-1.77 8.99,-3.23 12.97,-3.81 2.01,-0.15 3.04,0.8 4.16,1.53l4.95 -13.16 -32.96 9.33 2.03 9.17 0 0z"/>
  <path class="fil1 str4" d="M79.4 233.7c0.64,-0.14 1.56,-0.32 2.17,-0.49 2.55,-0.67 4.39,-1.69 6.68,-2.57 4.92,-1.77 8.99,-3.23 12.97,-3.81 2.01,-0.15 3.04,0.8 4.16,1.53l4.95 -13.16 -32.96 9.33 2.03 9.17 0 0z"/>
  <path class="fil2" d="M76.09 219.2c0.64,-0.15 1.55,-0.39 2.17,-0.5 2.59,-0.49 4.68,-0.38 7.12,-0.58 5.2,-0.55 9.52,-0.99 13.35,-2.2 1.89,-0.73 2.39,-2.03 3.08,-3.18l10.18 9.71 -33.75 5.9 -2.15 -9.15 0 0z"/>
  <path class="fil1 str4" d="M76.09 219.2c0.64,-0.15 1.55,-0.39 2.17,-0.5 2.59,-0.49 4.68,-0.38 7.12,-0.58 5.2,-0.55 9.52,-0.99 13.35,-2.2 1.89,-0.73 2.39,-2.03 3.08,-3.18l10.18 9.71 -33.75 5.9 -2.15 -9.15 0 0z"/>
  <polygon class="fil2" points="164.75,291.56 156.15,287.39 186.08,223.84 198.89,229.86 "/>
  <polygon class="fil1 str2" points="164.75,291.56 156.15,287.39 186.08,223.84 198.89,229.86 "/>
  <polygon class="fil2" points="150.3,284.6 158.92,288.73 189.93,225.68 177.24,219.43 "/>
  <polygon class="fil1 str2" points="150.3,284.6 158.92,288.73 189.93,225.68 177.24,219.43 "/>
  <path class="fil2" d="M139.32 308.75c1.98,-4.11 6.58,-6 10.28,-4.22 3.7,1.78 5.1,6.56 3.12,10.67 -1.98,4.12 -6.58,6.01 -10.28,4.22 -3.7,-1.78 -5.1,-6.56 -3.12,-10.67z"/>
  <path class="fil1 str3" d="M139.32 308.75c1.98,-4.11 6.58,-6 10.28,-4.22 3.7,1.78 5.1,6.56 3.12,10.67 -1.98,4.12 -6.58,6.01 -10.28,4.22 -3.7,-1.78 -5.1,-6.56 -3.12,-10.67z"/>
  <path class="fil2" d="M152.67 315.3c0.28,-0.59 0.72,-1.43 0.97,-2 1.05,-2.41 1.42,-4.48 2.15,-6.82 1.7,-4.95 3.09,-9.06 5.11,-12.51 1.14,-1.68 2.52,-1.89 3.8,-2.3l-7.21 -12.09 -13.25 31.6 8.43 4.12 0 0z"/>
  <path class="fil1 str4" d="M152.67 315.3c0.28,-0.59 0.72,-1.43 0.97,-2 1.05,-2.41 1.42,-4.48 2.15,-6.82 1.7,-4.95 3.09,-9.06 5.11,-12.51 1.14,-1.68 2.52,-1.89 3.8,-2.3l-7.21 -12.09 -13.25 31.6 8.43 4.12 0 0z"/>
  <path class="fil2" d="M139.27 308.85c0.28,-0.59 0.66,-1.45 0.96,-2 1.22,-2.34 2.62,-3.91 3.99,-5.94 2.81,-4.41 5.15,-8.06 6.6,-11.8 0.6,-1.93 -0.1,-3.15 -0.57,-4.4l13.94 -1.91 -16.43 30.07 -8.49 -4.02 0 0z"/>
  <path class="fil1 str4" d="M139.27 308.85c0.28,-0.59 0.66,-1.45 0.96,-2 1.22,-2.34 2.62,-3.91 3.99,-5.94 2.81,-4.41 5.15,-8.06 6.6,-11.8 0.6,-1.93 -0.1,-3.15 -0.57,-4.4l13.94 -1.91 -16.43 30.07 -8.49 -4.02 0 0z"/>
  <polygon class="fil2" points="251.08,284.47 242.46,288.61 211.42,225.57 224.12,219.31 "/>
  <polygon class="fil1 str2" points="251.08,284.47 242.46,288.61 211.42,225.57 224.12,219.31 "/>
  <polygon class="fil2" points="236.62,291.44 245.22,287.27 215.27,223.72 202.48,229.75 "/>
  <polygon class="fil1 str2" points="236.62,291.44 245.22,287.27 215.27,223.72 202.48,229.75 "/>
  <path class="fil2" d="M248.66 315.08c-1.98,-4.11 -0.59,-8.89 3.11,-10.67 3.71,-1.78 8.31,0.1 10.29,4.22 1.98,4.1 0.58,8.89 -3.12,10.67 -3.69,1.78 -8.3,-0.1 -10.28,-4.22l0 0z"/>
  <path class="fil1 str3" d="M248.66 315.08c-1.98,-4.11 -0.59,-8.89 3.11,-10.67 3.71,-1.78 8.31,0.1 10.29,4.22 1.98,4.1 0.58,8.89 -3.12,10.67 -3.69,1.78 -8.3,-0.1 -10.28,-4.22l0 0z"/>
  <path class="fil2" d="M262.11 308.73c-0.29,-0.6 -0.67,-1.45 -0.96,-2.01 -1.23,-2.33 -2.63,-3.9 -4,-5.93 -2.8,-4.41 -5.15,-8.06 -6.6,-11.8 -0.6,-1.93 0.1,-3.15 0.58,-4.4l-13.95 -1.91 16.44 30.07 8.49 -4.02 0 0z"/>
  <path class="fil1 str4" d="M262.11 308.73c-0.29,-0.6 -0.67,-1.45 -0.96,-2.01 -1.23,-2.33 -2.63,-3.9 -4,-5.93 -2.8,-4.41 -5.15,-8.06 -6.6,-11.8 -0.6,-1.93 0.1,-3.15 0.58,-4.4l-13.95 -1.91 16.44 30.07 8.49 -4.02 0 0z"/>
  <path class="fil2" d="M248.71 315.18c-0.29,-0.59 -0.73,-1.43 -0.98,-2 -1.05,-2.41 -1.41,-4.48 -2.15,-6.82 -1.68,-4.95 -3.08,-9.06 -5.11,-12.51 -1.13,-1.68 -2.52,-1.89 -3.79,-2.3l7.21 -12.09 13.26 31.6 -8.44 4.12z"/>
  <path class="fil1 str4" d="M248.71 315.18c-0.29,-0.59 -0.73,-1.43 -0.98,-2 -1.05,-2.41 -1.41,-4.48 -2.15,-6.82 -1.68,-4.95 -3.08,-9.06 -5.11,-12.51 -1.13,-1.68 -2.52,-1.89 -3.79,-2.3l7.21 -12.09 13.26 31.6 -8.44 4.12z"/>
  <polygon class="fil2" points="299.41,212.53 297.26,221.85 228.63,206.8 231.66,192.99 "/>
  <polygon class="fil1 str2" points="299.41,212.53 297.26,221.85 228.63,206.8 231.66,192.99 "/>
  <polygon class="fil2" points="295.84,228.18 297.94,218.85 229.59,202.64 226.31,216.4 "/>
  <polygon class="fil1 str2" points="295.84,228.18 297.94,218.85 229.59,202.64 226.31,216.4 "/>
  <path class="fil2" d="M321.83 233.5c-4.45,-1.01 -7.32,-5.08 -6.41,-9.09 0.92,-4 5.27,-6.42 9.72,-5.41 4.44,1.02 7.32,5.09 6.4,9.09 -0.91,4 -5.26,6.43 -9.71,5.41l0 0z"/>
  <path class="fil1 str3" d="M321.83 233.5c-4.45,-1.01 -7.32,-5.08 -6.41,-9.09 0.92,-4 5.27,-6.42 9.72,-5.41 4.44,1.02 7.32,5.09 6.4,9.09 -0.91,4 -5.26,6.43 -9.71,5.41l0 0z"/>
  <path class="fil2" d="M325.24 219.03c-0.64,-0.14 -1.55,-0.38 -2.17,-0.5 -2.58,-0.5 -4.68,-0.38 -7.12,-0.58 -5.2,-0.55 -9.51,-0.99 -13.34,-2.2 -1.88,-0.73 -2.39,-2.04 -3.09,-3.19l-10.17 9.71 33.75 5.9 2.14 -9.14 0 0z"/>
  <path class="fil1 str4" d="M325.24 219.03c-0.64,-0.14 -1.55,-0.38 -2.17,-0.5 -2.58,-0.5 -4.68,-0.38 -7.12,-0.58 -5.2,-0.55 -9.51,-0.99 -13.34,-2.2 -1.88,-0.73 -2.39,-2.04 -3.09,-3.19l-10.17 9.71 33.75 5.9 2.14 -9.14 0 0z"/>
  <path class="fil2" d="M321.93 233.53c-0.64,-0.15 -1.56,-0.33 -2.17,-0.49 -2.54,-0.68 -4.38,-1.69 -6.66,-2.57 -4.93,-1.76 -9.01,-3.24 -12.98,-3.81 -2.02,-0.16 -3.05,0.79 -4.16,1.54l-4.96 -13.17 32.96 9.33 -2.03 9.17z"/>
  <path class="fil1 str4" d="M321.93 233.53c-0.64,-0.15 -1.56,-0.33 -2.17,-0.49 -2.54,-0.68 -4.38,-1.69 -6.66,-2.57 -4.93,-1.76 -9.01,-3.24 -12.98,-3.81 -2.02,-0.16 -3.05,0.79 -4.16,1.54l-4.96 -13.17 32.96 9.33 -2.03 9.17z"/>
  <polygon class="fil2" points="273.45,129.87 279.39,137.35 224.84,181.63 215.92,170.66 "/>
  <polygon class="fil1 str2" points="273.45,129.87 279.39,137.35 224.84,181.63 215.92,170.66 "/>
  <polygon class="fil2" points="283.45,142.42 277.47,134.95 222.18,178.29 230.9,189.44 "/>
  <polygon class="fil1 str2" points="283.45,142.42 277.47,134.95 222.18,178.29 230.9,189.44 "/>
  <path class="fil2" d="M303.82 125.41c-3.57,2.86 -8.54,2.56 -11.1,-0.66 -2.56,-3.21 -1.74,-8.12 1.82,-10.97 3.57,-2.84 8.54,-2.55 11.11,0.67 2.56,3.21 1.74,8.12 -1.83,10.96z"/>
  <path class="fil1 str3" d="M303.82 125.41c-3.57,2.86 -8.54,2.56 -11.1,-0.66 -2.56,-3.21 -1.74,-8.12 1.82,-10.97 3.57,-2.84 8.54,-2.55 11.11,0.67 2.56,3.21 1.74,8.12 -1.83,10.96z"/>
  <path class="fil2" d="M294.63 113.72c-0.51,0.41 -1.26,0.97 -1.74,1.38 -1.99,1.72 -3.22,3.43 -4.89,5.21 -3.68,3.73 -6.71,6.83 -10.04,9.06 -1.75,1.02 -3.09,0.6 -4.41,0.43l1.24 14.01 25.66 -22.71 -5.82 -7.38 0 0z"/>
  <path class="fil1 str4" d="M294.63 113.72c-0.51,0.41 -1.26,0.97 -1.74,1.38 -1.99,1.72 -3.22,3.43 -4.89,5.21 -3.68,3.73 -6.71,6.83 -10.04,9.06 -1.75,1.02 -3.09,0.6 -4.41,0.43l1.24 14.01 25.66 -22.71 -5.82 -7.38 0 0z"/>
  <path class="fil2" d="M303.91 125.35c-0.51,0.4 -1.23,1.02 -1.74,1.39 -2.11,1.56 -4.05,2.37 -6.16,3.61 -4.45,2.76 -8.14,5.03 -11.07,7.77 -1.39,1.48 -1.28,2.88 -1.4,4.21l-13.39 -4.33 27.86 -19.96 5.9 7.31z"/>
  <path class="fil1 str4" d="M303.91 125.35c-0.51,0.4 -1.23,1.02 -1.74,1.39 -2.11,1.56 -4.05,2.37 -6.16,3.61 -4.45,2.76 -8.14,5.03 -11.07,7.77 -1.39,1.48 -1.28,2.88 -1.4,4.21l-13.39 -4.33 27.86 -19.96 5.9 7.31z"/>
  <path class="fil2" d="M188.98 160.86c-0.14,3.5 -3.02,6.28 -6.54,6.28 -1.45,0 -2.78,-0.47 -3.87,-1.25l-1.7 0.8 3.48 7.21 15.26 -7.37 -3.46 -7.19 -3.17 1.52 0 0 0 0z"/>
  <path class="fil1 str6" d="M188.98 160.86c-0.14,3.5 -3.02,6.28 -6.54,6.28 -1.45,0 -2.78,-0.47 -3.87,-1.25l-1.7 0.8 3.48 7.21 15.26 -7.37 -3.46 -7.19 -3.17 1.52 0 0 0 0z"/>
  <path class="fil2" d="M164.08 184.11c2.64,2.29 3.02,6.27 0.82,9.03 -0.9,1.13 -2.09,1.89 -3.38,2.24l-0.43 1.84 7.8 1.76 3.76 -16.52 -7.79 -1.78 -0.78 3.43 0 0z"/>
  <path class="fil1 str6" d="M164.08 184.11c2.64,2.29 3.02,6.27 0.82,9.03 -0.9,1.13 -2.09,1.89 -3.38,2.24l-0.43 1.84 7.8 1.76 3.76 -16.52 -7.79 -1.78 -0.78 3.43 0 0z"/>
  <path class="fil2" d="M166.69 218.05c3.44,-0.63 6.8,1.55 7.59,4.99 0.31,1.41 0.16,2.81 -0.37,4.04l1.17 1.49 6.24 -5 -10.57 -13.24 -6.25 4.98 2.19 2.74 0 0z"/>
  <path class="fil1 str6" d="M166.69 218.05c3.44,-0.63 6.8,1.55 7.59,4.99 0.31,1.41 0.16,2.81 -0.37,4.04l1.17 1.49 6.24 -5 -10.57 -13.24 -6.25 4.98 2.19 2.74 0 0z"/>
  <path class="fil2" d="M194.87 237.16c1.65,-3.08 5.44,-4.35 8.63,-2.82 1.29,0.63 2.29,1.63 2.93,2.81l1.89 0.01 -0.02 -8 -16.94 0.01 0 7.99 3.51 0 0 0z"/>
  <path class="fil1 str6" d="M194.87 237.16c1.65,-3.08 5.44,-4.35 8.63,-2.82 1.29,0.63 2.29,1.63 2.93,2.81l1.89 0.01 -0.02 -8 -16.94 0.01 0 7.99 3.51 0 0 0z"/>
  <path class="fil2" d="M227.34 226.94c-1.38,-3.21 0,-6.97 3.18,-8.5 1.3,-0.63 2.7,-0.79 4.03,-0.55l1.18 -1.46 -6.26 -4.98 -10.55 13.25 6.24 4.98 2.18 -2.74 0 0 0 0z"/>
  <path class="fil1 str6" d="M227.34 226.94c-1.38,-3.21 0,-6.97 3.18,-8.5 1.3,-0.63 2.7,-0.79 4.03,-0.55l1.18 -1.46 -6.26 -4.98 -10.55 13.25 6.24 4.98 2.18 -2.74 0 0 0 0z"/>
  <path class="fil2" d="M239.75 195.19c-3.37,-0.92 -5.45,-4.34 -4.66,-7.78 0.31,-1.41 1.06,-2.61 2.07,-3.49l-0.4 -1.84 -7.8 1.79 3.78 16.52 7.79 -1.78 -0.78 -3.42z"/>
  <path class="fil1 str6" d="M239.75 195.19c-3.37,-0.92 -5.45,-4.34 -4.66,-7.78 0.31,-1.41 1.06,-2.61 2.07,-3.49l-0.4 -1.84 -7.8 1.79 3.78 16.52 7.79 -1.78 -0.78 -3.42z"/>
  <path class="fil2" d="M222.65 165.75c-2.82,2.06 -6.79,1.55 -8.99,-1.21 -0.9,-1.13 -1.37,-2.46 -1.42,-3.8l-1.7 -0.83 -3.46 7.22 15.27 7.33 3.46 -7.19 -3.16 -1.52 0 0 0 0z"/>
  <path class="fil1 str6" d="M222.65 165.75c-2.82,2.06 -6.79,1.55 -8.99,-1.21 -0.9,-1.13 -1.37,-2.46 -1.42,-3.8l-1.7 -0.83 -3.46 7.22 15.27 7.33 3.46 -7.19 -3.16 -1.52 0 0 0 0z"/>
 </g>
</svg>
