<?xml version="1.0" encoding="UTF-8"?>
<!DOCTYPE svg PUBLIC "-//W3C//DTD SVG 1.1//EN" "http://www.w3.org/Graphics/SVG/1.1/DTD/svg11.dtd">
<!-- Creator: CorelDRAW 2018 (64 Bit) -->
<svg xmlns="http://www.w3.org/2000/svg" xml:space="preserve" width="4mm" height="4mm" version="1.1" style="shape-rendering:geometricPrecision; text-rendering:geometricPrecision; image-rendering:optimizeQuality; fill-rule:evenodd; clip-rule:evenodd"
viewBox="0 0 400 400"
 >
 <defs>
  <style type="text/css">
   <![CDATA[
    .fil0 {fill:none}
    .fil2 {fill:#003399}
    .fil1 {fill:#336699}
   ]]>
  </style>
 </defs>
 <g id="Ebene_x0020_1">
  <metadata id="CorelCorpID_0Corel-Layer"/>
  <rect class="fil0" x="4.52" y="32.41" width="390.99" height="352.37"/>
  <path class="fil1" d="M312.55 156.37c0,-46.09 -37.72,-83.8 -83.81,-83.8 -39.28,0 -72.28,27.23 -81.18,63.38 -25.14,4.19 -44.52,25.66 -44.52,51.86 0,0.97 0.03,1.94 0.09,2.9 16.29,-14.15 38.29,-22.9 62.48,-22.9 45.89,0 84.13,31.64 90.25,72.37l56.7 0c23.04,0 41.9,-18.85 41.9,-41.9 0,-23.06 -18.86,-41.91 -41.9,-41.91l0 0z"/>
  <path class="fil2" d="M246.97 264.51c0,-46.09 -37.71,-83.8 -83.8,-83.8 -39.28,0 -72.28,27.23 -81.19,63.38 -25.13,4.19 -44.51,25.66 -44.51,51.86 0,28.8 23.57,52.37 52.38,52.37l157.13 0c23.05,0 41.9,-18.84 41.9,-41.9 0,-23.05 -18.85,-41.9 -41.9,-41.9z"/>
 </g>
</svg>
