<?xml version="1.0" encoding="UTF-8"?>
<!DOCTYPE svg PUBLIC "-//W3C//DTD SVG 1.1//EN" "http://www.w3.org/Graphics/SVG/1.1/DTD/svg11.dtd">
<!-- Creator: CorelDRAW 2018 (64 Bit) -->
<svg xmlns="http://www.w3.org/2000/svg" xml:space="preserve" width="4mm" height="4mm" version="1.1" style="shape-rendering:geometricPrecision; text-rendering:geometricPrecision; image-rendering:optimizeQuality; fill-rule:evenodd; clip-rule:evenodd"
viewBox="0 0 400 400"
 >
 <defs>
  <style type="text/css">
   <![CDATA[
    .str0 {stroke:#DB212E;stroke-width:9.45;stroke-miterlimit:22.9256}
    .str4 {stroke:#BA2133;stroke-width:7.2;stroke-miterlimit:22.9256}
    .str3 {stroke:#C22133;stroke-width:7.2;stroke-miterlimit:22.9256}
    .str1 {stroke:#DB212E;stroke-width:7.2;stroke-miterlimit:22.9256}
    .str2 {stroke:#EB2126;stroke-width:7.2;stroke-miterlimit:22.9256}
    .str5 {stroke:white;stroke-width:0.2;stroke-miterlimit:22.9256}
    .fil4 {fill:none}
    .fil3 {fill:#BA2133;fill-rule:nonzero}
    .fil2 {fill:#C22133;fill-rule:nonzero}
    .fil0 {fill:#DB212E;fill-rule:nonzero}
    .fil1 {fill:#EB2126;fill-rule:nonzero}
   ]]>
  </style>
 </defs>
 <g id="Ebene_x0020_1">
  <metadata id="CorelCorpID_0Corel-Layer"/>
  <path id="path44564" class="fil0 str0" d="M248.28 108.35c11.14,5.21 14.15,6.82 22.3,15.14l54.34 -19.88c-14.84,-20.82 -29.18,-32.36 -53.95,-43.91 -76.58,-35.71 -167.94,-2.47 -203.64,74.11 -11.56,24.77 -17.03,42.49 -15.01,67.98l55.92 -19.48c0.89,-11.6 2.54,-14.66 7.74,-25.81 23.2,-49.75 82.54,-71.34 132.29,-48.14l0 0z"/>
  <path id="path44572" class="fil0 str1" d="M305.4 206.24c-0.86,11.6 -3.78,23.24 -9,34.39 -23.19,49.76 -82.55,71.34 -132.28,48.15 -11.17,-5.21 -20.88,-12.25 -29,-20.58l-53.46 19.45c14.81,20.83 35,38.23 59.78,49.79 76.58,35.71 167.92,2.47 203.63,-74.12 11.57,-24.76 15.83,-51.07 13.8,-76.54l-53.46 19.46 0 0 0 0z"/>
  <path id="path44576" class="fil1 str2" d="M317.31 148.16l-47.2 15.11c9.47,16.93 11.68,25.69 10.21,45.32l50.63 -17.78c-1.27,-13.89 -7.45,-32.39 -13.64,-42.64zm-239.61 87.27l-43.86 15.58c1.17,11.92 7.13,30.16 15.94,40.97l47.77 -17.35c-10.79,-15.46 -14.25,-20.55 -19.85,-39.2z"/>
  <path id="path44560" class="fil2 str3" d="M366.13 123.53c-3.73,-7.72 -8.05,-15.16 -13.07,-22.17l-55.32 20.08c4.48,5.01 9.32,13.91 11.84,22.17l56.55 -20.08zm-236.88 59.17l-53.46 19.56c0.68,8.6 2.17,17.08 4.25,25.4l50.89 -18.53c-1.65,-8.61 -2.36,-17.56 -1.68,-26.43z"/>
  <path id="path44588" class="fil3 str4" d="M359.25 186.59l-53.84 19.64c-0.57,7.69 -2.06,15.4 -4.52,22.99l58.18 -21.21c0.22,-3.69 0.71,-9.67 0.18,-21.42zm-278.35 101.46c4.12,5.8 9.47,10.93 14.41,16.15l58.2 -21.22c-6.8,-4.25 -12.95,-9.22 -18.38,-14.78 -17.69,6.48 -36.54,13.37 -54.23,19.85z"/>
  <rect class="fil4 str5" x="4.52" y="32.41" width="390.99" height="352.37"/>
 </g>
</svg>
