<?xml version="1.0" encoding="UTF-8"?>
<!DOCTYPE svg PUBLIC "-//W3C//DTD SVG 1.1//EN" "http://www.w3.org/Graphics/SVG/1.1/DTD/svg11.dtd">
<!-- Creator: CorelDRAW 2018 (64 Bit) -->
<svg xmlns="http://www.w3.org/2000/svg" xml:space="preserve" width="4mm" height="4mm" version="1.1" style="shape-rendering:geometricPrecision; text-rendering:geometricPrecision; image-rendering:optimizeQuality; fill-rule:evenodd; clip-rule:evenodd"
viewBox="0 0 400 400"
 >
 <defs>
  <style type="text/css">
   <![CDATA[
    .str0 {stroke:white;stroke-width:0.2;stroke-miterlimit:22.9256}

    .fil0 {fill:none}
    .fil3 {fill:#00BBFF}
    .fil2 {fill:#00D0FF}
    .fil1 {fill:#1DE8F1}
    .fil9 {fill:#4C5CE1}
    .fil8 {fill:#6E77E5}
    .fil7 {fill:#7986E8}
    .fil6 {fill:#9E0A48}
    .fil5 {fill:#DD025B}
    .fil4 {fill:#FF0B69}
   ]]>
  </style>
 </defs>
 <g id="Ebene_x0020_1">
  <metadata id="CorelCorpID_0Corel-Layer"/>
   <rect class="fil0 str0" x="4.52" y="32.41" width="390.99" height="352.37"/>
  <rect class="fil0" x="4.52" y="32.41" width="390.99" height="352.37"/>
  <polygon class="fil1" points="130.96,261.38 63.85,246.31 57.03,224.41 130.96,187.44 204.89,224.41 197.18,246.74 "/>
  <polygon class="fil2" points="130.96,363.65 57.03,326.68 57.03,224.41 130.96,261.38 149.44,288.59 149.44,337.09 "/>
  <polygon class="fil3" points="204.89,326.68 130.96,363.65 130.96,261.38 204.89,224.41 "/>
  <polygon class="fil4" points="278.82,261.38 211.72,246.31 204.89,224.41 278.82,187.44 352.75,224.41 345.05,246.74 "/>
  <polygon class="fil5" points="278.82,363.65 204.89,326.68 204.89,224.41 278.82,261.38 297.31,288.59 297.31,337.09 "/>
  <polygon class="fil6" points="352.75,326.68 278.82,363.65 278.82,261.38 352.75,224.41 "/>
  <polygon class="fil7" points="204.89,122.14 137.78,107.07 130.96,85.17 204.89,48.21 278.82,85.17 271.12,107.5 "/>
  <polygon class="fil8" points="204.89,224.41 130.96,187.44 130.96,85.17 204.89,122.14 223.38,148.73 223.38,197.86 "/>
  <polygon class="fil9" points="278.82,187.44 204.89,224.41 204.89,122.14 278.82,85.17 "/>
  <g id="_2099868765360">
  </g>
  <g id="_2099868764496">
  </g>
  <g id="_2099868766416">
  </g>
  <g id="_2099868763088">
  </g>
  <g id="_2099868762448">
  </g>
  <g id="_2099868763312">
  </g>
  <g id="_2099868763344">
  </g>
  <g id="_2099868764368">
  </g>
  <g id="_2099868762224">
  </g>
  <g id="_2099868762064">
  </g>
  <g id="_2099868762032">
  </g>
  <g id="_2099868761264">
  </g>
  <g id="_2099868760080">
  </g>
  <g id="_2099868759696">
  </g>
  <g id="_2099868758480">
  </g>
 </g>
</svg>
