<?xml version="1.0" encoding="UTF-8"?>
<!DOCTYPE svg PUBLIC "-//W3C//DTD SVG 1.1//EN" "http://www.w3.org/Graphics/SVG/1.1/DTD/svg11.dtd">
<!-- Creator: CorelDRAW 2018 (64 Bit) -->
<svg xmlns="http://www.w3.org/2000/svg" xml:space="preserve" width="4mm" height="4mm" version="1.1" style="shape-rendering:geometricPrecision; text-rendering:geometricPrecision; image-rendering:optimizeQuality; fill-rule:evenodd; clip-rule:evenodd"
viewBox="0 0 400 400"
 >
 <defs>
  <style type="text/css">
   <![CDATA[
    .str0 {stroke:#336699;stroke-width:18.9;stroke-miterlimit:22.9256}
    .fil1 {fill:none}
    .fil0 {fill:#245485}
    .fil2 {fill:#336699}
   ]]>
  </style>
 </defs>
 <g id="Ebene_x0020_1">
  <metadata id="CorelCorpID_0Corel-Layer"/>
  <path class="fil0" d="M334.51 258.13c0,-56.1 -45.91,-102.01 -102.02,-102.01 -47.82,0 -87.99,33.16 -98.83,77.14 -19.64,3.27 -36.39,15.2 -45.87,31.76l46.44 0c0.47,-1.08 0.97,-2.14 1.5,-3.18l0.18 -0.38 0.34 -0.66 0.39 -0.72c9.87,-17.97 27.57,-34.82 57.26,-34.91 41.4,-0.12 65.98,33.9 65.31,66.21 -0.66,31.6 -23.38,61.74 -65.51,61.91 -24.71,0.1 -46.59,-11.97 -57.39,-32.41l-52.52 0c9.3,23.56 34.64,50.6 61.58,50.6l172.13 0.6c43.48,-0.19 68.01,-23.93 68.01,-62.93 0,-28.04 -22.95,-51.02 -51.01,-51.02z"/>
  <path class="fil1 str0" d="M213.87 139.89c-5.91,-33.47 -42.95,-48.79 -77.14,-45.23 -33.98,5.47 -58.67,23.76 -69.59,68.76 -30.86,5.22 -54.64,31.96 -54.64,64.57 0,35.88 28.93,65.23 64.28,65.23 64.27,0 81.97,0 146.24,0"/>
  <circle class="fil2" cx="192.88" cy="291.1" r="42.31"/>
 </g>
</svg>
