<?xml version="1.0" encoding="UTF-8"?>
<!DOCTYPE svg PUBLIC "-//W3C//DTD SVG 1.1//EN" "http://www.w3.org/Graphics/SVG/1.1/DTD/svg11.dtd">
<!-- Creator: CorelDRAW 2018 (64 Bit) -->
<svg xmlns="http://www.w3.org/2000/svg" xml:space="preserve" width="4mm" height="4mm" version="1.1" style="shape-rendering:geometricPrecision; text-rendering:geometricPrecision; image-rendering:optimizeQuality; fill-rule:evenodd; clip-rule:evenodd"
viewBox="0 0 400 400"
 >
 <defs>
  <style type="text/css">
   <![CDATA[
    .str1 {stroke:#66E392;stroke-width:18.9;stroke-miterlimit:22.9256}
    .str2 {stroke:#66E392;stroke-width:7.2;stroke-miterlimit:22.9256}
    .str0 {stroke:white;stroke-width:0.2;stroke-miterlimit:22.9256}
    .fil0 {fill:none}
    .fil3 {fill:none;fill-rule:nonzero}
    .fil1 {fill:#333333}
    .fil2 {fill:#66E392;fill-rule:nonzero}
   ]]>
  </style>
 </defs>
 <g id="Ebene_x0020_1">
  <metadata id="CorelCorpID_0Corel-Layer"/>
  <rect class="fil0 str0" x="4.52" y="32.41" width="390.99" height="352.37"/>
  <rect class="fil1 str1" x="49.29" y="45.63" width="306.19" height="309.93"/>
  <path class="fil2" d="M180.92 134.43c0,7.09 -0.71,13.39 -2.12,18.86 -1.42,5.49 -3.44,10.12 -6.12,13.87 -2.67,3.77 -5.94,6.62 -9.83,8.58 -3.89,1.96 -8.29,2.93 -13.24,2.93 -4.7,0 -8.87,-0.93 -12.54,-2.81 -3.67,-1.88 -6.76,-4.6 -9.26,-8.2 -2.54,-3.59 -4.45,-7.99 -5.75,-13.22 -1.31,-5.21 -1.96,-11.21 -1.96,-17.95 0,-7.41 0.7,-13.95 2.05,-19.62 1.37,-5.68 3.38,-10.44 6.02,-14.28 2.65,-3.86 5.94,-6.75 9.87,-8.7 3.93,-1.96 8.42,-2.93 13.51,-2.93 19.57,0 29.35,14.49 29.35,43.47zm-10.93 0.97c0,-24.12 -6.31,-36.2 -18.95,-36.2 -13.3,0 -19.98,12.27 -19.98,36.84 0,22.91 6.53,34.39 19.6,34.39 12.88,0 19.33,-11.67 19.33,-35.03z"/>
  <path id="1" class="fil3 str2" d="M180.92 134.43c0,7.09 -0.71,13.39 -2.12,18.86 -1.42,5.49 -3.44,10.12 -6.12,13.87 -2.67,3.77 -5.94,6.62 -9.83,8.58 -3.89,1.96 -8.29,2.93 -13.24,2.93 -4.7,0 -8.87,-0.93 -12.54,-2.81 -3.67,-1.88 -6.76,-4.6 -9.26,-8.2 -2.54,-3.59 -4.45,-7.99 -5.75,-13.22 -1.31,-5.21 -1.96,-11.21 -1.96,-17.95 0,-7.41 0.7,-13.95 2.05,-19.62 1.37,-5.68 3.38,-10.44 6.02,-14.28 2.65,-3.86 5.94,-6.75 9.87,-8.7 3.93,-1.96 8.42,-2.93 13.51,-2.93 19.57,0 29.35,14.49 29.35,43.47zm-10.93 0.97c0,-24.12 -6.31,-36.2 -18.95,-36.2 -13.3,0 -19.98,12.27 -19.98,36.84 0,22.91 6.53,34.39 19.6,34.39 12.88,0 19.33,-11.67 19.33,-35.03z"/>
  <path class="fil2" d="M263.13 180.77l-10.66 0 0 -73.29c-0.82,0.75 -2.02,1.62 -3.6,2.56 -1.6,0.97 -3.37,1.94 -5.35,2.87 -1.96,0.94 -4.05,1.83 -6.26,2.66 -2.17,0.82 -4.31,1.49 -6.4,1.96l0 -9.81c2.33,-0.61 4.83,-1.4 7.45,-2.41 2.63,-1.01 5.23,-2.14 7.75,-3.37 2.54,-1.25 4.94,-2.54 7.19,-3.91 2.27,-1.35 4.22,-2.68 5.87,-4l4.01 0 0 86.73z"/>
  <path id="1" class="fil3 str2" d="M263.13 180.77l-10.66 0 0 -73.29c-0.82,0.75 -2.02,1.62 -3.6,2.56 -1.6,0.97 -3.37,1.94 -5.35,2.87 -1.96,0.94 -4.05,1.83 -6.26,2.66 -2.17,0.82 -4.31,1.49 -6.4,1.96l0 -9.81c2.33,-0.61 4.83,-1.4 7.45,-2.41 2.63,-1.01 5.23,-2.14 7.75,-3.37 2.54,-1.25 4.94,-2.54 7.19,-3.91 2.27,-1.35 4.22,-2.68 5.87,-4l4.01 0 0 86.73z"/>
  <path class="fil2" d="M158.46 305.06l-10.66 0 0 -73.29c-0.82,0.75 -2.02,1.62 -3.6,2.56 -1.6,0.97 -3.37,1.94 -5.35,2.87 -1.96,0.94 -4.05,1.83 -6.26,2.66 -2.17,0.82 -4.31,1.49 -6.4,1.96l0 -9.81c2.33,-0.61 4.83,-1.4 7.45,-2.41 2.63,-1.01 5.23,-2.14 7.75,-3.37 2.54,-1.25 4.94,-2.54 7.19,-3.91 2.27,-1.35 4.22,-2.68 5.87,-4l4.01 0 0 86.73z"/>
  <path id="1" class="fil3 str2" d="M158.46 305.06l-10.66 0 0 -73.29c-0.82,0.75 -2.02,1.62 -3.6,2.56 -1.6,0.97 -3.37,1.94 -5.35,2.87 -1.96,0.94 -4.05,1.83 -6.26,2.66 -2.17,0.82 -4.31,1.49 -6.4,1.96l0 -9.81c2.33,-0.61 4.83,-1.4 7.45,-2.41 2.63,-1.01 5.23,-2.14 7.75,-3.37 2.54,-1.25 4.94,-2.54 7.19,-3.91 2.27,-1.35 4.22,-2.68 5.87,-4l4.01 0 0 86.73z"/>
  <path class="fil2" d="M284.06 261.56c0,7.09 -0.71,13.39 -2.12,18.86 -1.42,5.49 -3.44,10.12 -6.12,13.87 -2.67,3.77 -5.94,6.62 -9.83,8.58 -3.89,1.96 -8.29,2.93 -13.24,2.93 -4.7,0 -8.87,-0.93 -12.54,-2.81 -3.67,-1.88 -6.76,-4.6 -9.26,-8.2 -2.54,-3.59 -4.45,-7.99 -5.75,-13.22 -1.31,-5.21 -1.96,-11.21 -1.96,-17.95 0,-7.41 0.7,-13.95 2.05,-19.62 1.37,-5.68 3.38,-10.44 6.02,-14.28 2.65,-3.86 5.94,-6.75 9.87,-8.7 3.93,-1.96 8.42,-2.93 13.51,-2.93 19.57,0 29.35,14.49 29.35,43.47zm-10.93 0.97c0,-24.12 -6.31,-36.2 -18.95,-36.2 -13.3,0 -19.98,12.27 -19.98,36.84 0,22.91 6.53,34.39 19.6,34.39 12.88,0 19.33,-11.67 19.33,-35.03z"/>
  <path id="1" class="fil3 str2" d="M284.06 261.56c0,7.09 -0.71,13.39 -2.12,18.86 -1.42,5.49 -3.44,10.12 -6.12,13.87 -2.67,3.77 -5.94,6.62 -9.83,8.58 -3.89,1.96 -8.29,2.93 -13.24,2.93 -4.7,0 -8.87,-0.93 -12.54,-2.81 -3.67,-1.88 -6.76,-4.6 -9.26,-8.2 -2.54,-3.59 -4.45,-7.99 -5.75,-13.22 -1.31,-5.21 -1.96,-11.21 -1.96,-17.95 0,-7.41 0.7,-13.95 2.05,-19.62 1.37,-5.68 3.38,-10.44 6.02,-14.28 2.65,-3.86 5.94,-6.75 9.87,-8.7 3.93,-1.96 8.42,-2.93 13.51,-2.93 19.57,0 29.35,14.49 29.35,43.47zm-10.93 0.97c0,-24.12 -6.31,-36.2 -18.95,-36.2 -13.3,0 -19.98,12.27 -19.98,36.84 0,22.91 6.53,34.39 19.6,34.39 12.88,0 19.33,-11.67 19.33,-35.03z"/>
 </g>
</svg>
