<?xml version="1.0" encoding="UTF-8"?>
<!DOCTYPE svg PUBLIC "-//W3C//DTD SVG 1.1//EN" "http://www.w3.org/Graphics/SVG/1.1/DTD/svg11.dtd">
<!-- Creator: CorelDRAW 2018 (64 Bit) -->
<svg xmlns="http://www.w3.org/2000/svg" xml:space="preserve" width="4.2332mm" height="4.2332mm" version="1.1" style="shape-rendering:geometricPrecision; text-rendering:geometricPrecision; image-rendering:optimizeQuality; fill-rule:evenodd; clip-rule:evenodd"
viewBox="0 0 423.32 423.32"
 xmlns:xlink="http://www.w3.org/1999/xlink">
 <defs>
  <style type="text/css">
   <![CDATA[
    .fil1 {fill:#003E59;fill-rule:nonzero}
    .fil0 {fill:#006D9A;fill-rule:nonzero}
   ]]>
  </style>
 </defs>
 <g id="Ebene_x0020_1">
  <metadata id="CorelCorpID_0Corel-Layer"/>
  <path class="fil0" d="M393.96 271.02c-33.33,24.51 -102.29,41.42 -182.23,41.42 -79.91,0 -148.89,-16.91 -182.2,-41.42 -13.56,9.99 -21.37,21.21 -21.37,33.08 0,41.15 91.13,74.51 203.57,74.51 112.46,0 203.6,-33.36 203.6,-74.51 0,-11.87 -7.82,-23.09 -21.37,-33.08zm0 0z"/>
  <path class="fil1" d="M393.96 171.69c-33.33,24.51 -102.29,41.42 -182.23,41.42 -79.91,0 -148.89,-16.91 -182.2,-41.42 -13.56,9.97 -21.37,21.18 -21.37,33.07 0,41.14 91.13,74.5 203.57,74.5 112.46,0 203.6,-33.36 203.6,-74.5 0,-11.89 -7.82,-23.1 -21.37,-33.07zm0 0z"/>
  <path class="fil0" d="M211.73 179.94c112.46,0 203.6,-33.36 203.6,-74.49 0,-41.15 -91.14,-74.5 -203.6,-74.5 -112.44,0 -203.57,33.35 -203.57,74.5 0,41.13 91.13,74.49 203.57,74.49zm0 0z"/>
 </g>
</svg>
